<svg xmlns="http://www.w3.org/2000/svg" xmlns:xlink="http://www.w3.org/1999/xlink" width="422" height="119" viewBox="0 0 422 119">
  <defs>
    <clipPath id="clip-Marca_UCAM">
      <rect width="422" height="119"/>
    </clipPath>
  </defs>
  <g id="Marca_UCAM" data-name="Marca UCAM" clip-path="url(#clip-Marca_UCAM)">
    <g id="Grupo_6" data-name="Grupo 6" transform="translate(42.727 33.132)">
      <path id="Caminho_2258" data-name="Caminho 2258" d="M601.4,351.148l.053.027.195.067a3.07,3.07,0,0,1,1.3.336c.009-.041-.034-.092.185-.048.932.369.477.147,1.19.28a2.848,2.848,0,0,1-.583-.209l1.364.36c-.173-.132-.3-.254-.066-.252-.1-.191.387-.24.6-.361a4.666,4.666,0,0,1-.512-.2c.045-.064.279-.018.57.039l-.077-.067.077.067a5.4,5.4,0,0,0,.637.119c-.124-.039-.244-.076-.179-.1l-.831-.195c-.023-.023.007-.027.057-.023l-.214-.021.152.085c.046.046-.067.032-.176.02a1.1,1.1,0,0,1-.366-.143l-.445-.058c-.193.073,1.107.4.386.3l-.205-.091a4.952,4.952,0,0,0-.987-.179c-.281-.237-.926-.177-.934-.375-1.2-.461-2.824-.785-4-1.313-.244.065-.3.309-.865.315-.1-.048-.259-.1-.2-.12l-.382-.03a2.122,2.122,0,0,1,.573.193c-.6-.1.24.177.169.237l-.81-.144.092.05c1.411.415,2.8.94,4.194,1.436Z" transform="translate(-353.089 -295.82)" fill="#4a4a4a"/>
      <path id="Caminho_2259" data-name="Caminho 2259" d="M467.132,342.413l.012.155c-12.679.064-29.591,1.8-45.11,3.326l.329-.6c-4.114.778-8.816,1.494-12.664,2.318l1.512-.071a39.641,39.641,0,0,1-7.046,1.219l.2-.169c2.972-.413-.209-.024.964-.562l.511-.129-.309-.037-.514.131c.051-.093,0-.195.484-.281l-.693.06c-1.522-.232-1.556-.569-1.411-1.038-.384.1.062.488-1.611.532l.2-.173-1.791.458-.824-.1a6.7,6.7,0,0,1-1.719.329l-.168.311c-2.982.226-6.7.987-9.727,1.112-.635.362-2.284.168-3.948.6l.755.233c1.86.219,6.086-.49,9.04-.668l-.1.181a8.092,8.092,0,0,1-1.816.315l-.174.318c1.386.89,5.276-.814,6.362-.785,2.288.034-1.425.8-.346.637-2.452.67,2.145.5,3.232.727,2.994.362,9.393-.695,13.268-1.132,6.4-1.434,15.086-1.591,21.064-2.208,2.875-.205,7.4-1.775,9.309-1.022l5.388-.308-.1.184c5.306-.435,10.832-1.268,15.79-1.25,2.146-.041,2.793-.476,3.766,0,4.259.442,9.338-.663,13.236.02.005-.152.589-.207-.148-.423-2.079-.2-4.392-.576-4.509-.978l.794.049-1.42-.341-.912.127c-.237-.1-.336-.175-.352-.242-1.561-.147-2.924-.506-4.544-.753a19.4,19.4,0,0,1-4.261-.07" transform="translate(-239.369 -292.195)" fill="#4a4a4a"/>
      <path id="Caminho_2260" data-name="Caminho 2260" d="M358.459,244.074v-4.332a3.123,3.123,0,0,0-.278-1.521,1.112,1.112,0,0,0-.927-.541c-.15-.02-.224-.076-.224-.18,0-.124.051-.175.154-.17a3.617,3.617,0,0,1,.484.063,3.643,3.643,0,0,0,.695.049c.569,0,.919-.007,1.052-.023.175-.016.29-.027.335-.027.1,0,.147.049.147.15,0,.078-.053.145-.161.191a1.05,1.05,0,0,0-.6.591,4.738,4.738,0,0,0-.139,1.421v4.15a6.23,6.23,0,0,1-.835,3.513,3.622,3.622,0,0,1-1.5,1.249,5.076,5.076,0,0,1-4.438-.09,3.462,3.462,0,0,1-1.517-1.494,6.427,6.427,0,0,1-.545-2.843v-4.26l-.016-.476a2.374,2.374,0,0,0-.225-1.236,1.28,1.28,0,0,0-.905-.447c-.138-.018-.2-.078-.2-.171,0-.129.092-.2.287-.2.127,0,.3.007.528.018s.4.023.51.023l.587-.007h.583c.058,0,.2-.01.428-.034.188-.01.316-.023.391-.023.117,0,.175.041.175.133s-.081.168-.244.2a.848.848,0,0,0-.6.424,3.021,3.021,0,0,0-.147,1.126l.017.553v4.217a5.763,5.763,0,0,0,.612,3.082,3.21,3.21,0,0,0,2.894,1.308,3.313,3.313,0,0,0,2.723-1.094,5.082,5.082,0,0,0,.9-3.3" transform="translate(-220.701 -236.159)" fill="#4a4a4a"/>
      <path id="Caminho_2261" data-name="Caminho 2261" d="M389.921,240.721v7.02a9.589,9.589,0,0,1-.037,1.152c-.026.135-.1.205-.214.2a.263.263,0,0,1-.175-.079l-.169-.219-6.438-8.074-.078-.092a.148.148,0,0,0-.108-.049c-.1,0-.145.127-.145.377v5.686l-.007.354.025.6a1.278,1.278,0,0,0,.258.76,1.538,1.538,0,0,0,.81.31c.166.021.251.095.251.212a.142.142,0,0,1-.161.164,1.845,1.845,0,0,1-.227-.016c-.056-.01-.279-.028-.668-.051l-.778-.041-.368.014a3.686,3.686,0,0,0-.566.042c-.129.014-.224.025-.283.025-.129,0-.2-.05-.209-.153-.005-.083.064-.148.209-.205a1.581,1.581,0,0,0,.872-.648,2.892,2.892,0,0,0,.223-1.315v-5.7a5.113,5.113,0,0,0-.419-2.282,1.6,1.6,0,0,0-1.218-.955c-.136-.021-.2-.083-.2-.189s.053-.157.168-.157c.025,0,.064.006.122.01l.313.007.511.021.122-.012c.122-.006.217-.008.281-.008a.512.512,0,0,1,.384.245l7.028,8.728c.113.143.186.207.211.2.053,0,.085-.055.087-.155v-4.15l.005-1.131-.092-1.925a1.614,1.614,0,0,0-.375-1.008,2.1,2.1,0,0,0-1.089-.446c-.147-.022-.218-.09-.218-.2s.071-.159.218-.159c.066,0,.172.008.324.021a11.848,11.848,0,0,0,1.409.064,4.507,4.507,0,0,0,.758-.049,1.976,1.976,0,0,1,.373-.053.187.187,0,0,1,.214.177c.005.076-.044.131-.149.162a.89.89,0,0,0-.618.419,2.749,2.749,0,0,0-.149,1.1v.9Z" transform="translate(-237.388 -236.202)" fill="#4a4a4a"/>
      <path id="Caminho_2262" data-name="Caminho 2262" d="M414.381,239.954v6.281a5.794,5.794,0,0,0,.133,1.55,1.336,1.336,0,0,0,.377.606,1.518,1.518,0,0,0,.709.247c.253.042.38.113.38.209,0,.134-.08.194-.239.194a1.767,1.767,0,0,1-.29-.025,6.027,6.027,0,0,0-.808-.035l-1.107-.021-.9.06a3.422,3.422,0,0,1-.364.021c-.143,0-.212-.057-.212-.17,0-.1.082-.164.237-.189a.953.953,0,0,0,.751-.44,3.63,3.63,0,0,0,.168-1.391v-7.184a3.124,3.124,0,0,0-.216-1.4,1.29,1.29,0,0,0-.932-.488c-.152-.032-.239-.1-.243-.193-.005-.124.066-.18.219-.18.042,0,.087,0,.14,0a11,11,0,0,0,1.482.076c.375,0,.7-.007.969-.027l.513-.049c.1,0,.162,0,.192,0,.134,0,.2.049.2.154s-.065.171-.2.219l-.4.171q-.567.231-.568,2.007" transform="translate(-254.305 -236.198)" fill="#4a4a4a"/>
      <path id="Caminho_2263" data-name="Caminho 2263" d="M429.76,239.483l2.935,7.4c.069.179.138.265.2.262s.14-.159.274-.477l.118-.315,1.676-4.364a14.122,14.122,0,0,0,1.082-3.615.521.521,0,0,0-.115-.391,1,1,0,0,0-.467-.191c-.283-.058-.426-.134-.417-.23s.085-.158.251-.158c.037,0,.108.006.223.011.378.025.6.037.681.037h.311l.349-.009h.194l.646-.011c.106,0,.159.05.159.15,0,.076-.058.138-.164.175a1.6,1.6,0,0,0-.834.973l-.2.545-3.8,9.755c-.108.272-.211.414-.308.414s-.216-.147-.327-.424l-3.872-9.843a3.874,3.874,0,0,0-.5-.948,1.01,1.01,0,0,0-.6-.342,2.523,2.523,0,0,1-.472-.122.134.134,0,0,1-.071-.133c0-.11.071-.161.212-.161a2.068,2.068,0,0,1,.225.011c.085.011.345.018.771.018l.726.007.511-.007c.11,0,.271-.011.49-.028a1.253,1.253,0,0,1,.214-.019c.138,0,.207.048.207.155,0,.073-.053.134-.155.173a1.356,1.356,0,0,0-.393.216.481.481,0,0,0-.081.306,3.724,3.724,0,0,0,.324,1.178" transform="translate(-262.243 -236.2)" fill="#4a4a4a"/>
      <path id="Caminho_2264" data-name="Caminho 2264" d="M459.55,238.791v3.383a.932.932,0,0,0,.066.463c.044.056.173.08.392.08h1.178a6.786,6.786,0,0,0,1.266-.094.99.99,0,0,0,.535-.244,1.9,1.9,0,0,0,.223-.707c.026-.143.092-.207.2-.2s.146.076.146.223c0,.039,0,.1-.007.186-.048.545-.069,1.032-.069,1.478q0,.506.048,1.013c.008.109.012.191.012.24,0,.138-.048.21-.145.21s-.175-.062-.2-.184l-.048-.237a1.149,1.149,0,0,0-.364-.762,1.645,1.645,0,0,0-.932-.2h-1.685a.952.952,0,0,0-.5.083.371.371,0,0,0-.128.334l.007.276v3.093q0,.711.235.889a2.361,2.361,0,0,0,1.176.177q3,0,3.856-1.485c.053-.094.113-.145.169-.152.093,0,.143.069.143.219a2.329,2.329,0,0,1-.557,1.292,2.038,2.038,0,0,1-1.7.9c-.148,0-.345-.011-.6-.032a23.863,23.863,0,0,0-2.412-.156,11.992,11.992,0,0,0-1.887.1,2.072,2.072,0,0,1-.4.064c-.164,0-.242-.064-.242-.182,0-.092.063-.16.2-.2l.294-.09c.362-.11.548-.5.548-1.174l.007-.543v-7.089a3.652,3.652,0,0,0-.24-1.616.985.985,0,0,0-.939-.419c-.147,0-.217-.046-.217-.152,0-.154.113-.228.343-.228a3.94,3.94,0,0,1,.511.037,21.765,21.765,0,0,0,2.628.134c.62,0,1.171-.011,1.649-.035l1.084-.056c.3-.014.484-.023.55-.035a2.222,2.222,0,0,1,.308-.032c.169,0,.251.081.251.242a.983.983,0,0,1-.023.191c-.015.078-.037.3-.059.668l-.03.493a4.054,4.054,0,0,1-.076.606.187.187,0,0,1-.175.129c-.1,0-.147-.075-.147-.253v-.216a1.527,1.527,0,0,0-.091-.514.84.84,0,0,0-.59-.5,7.09,7.09,0,0,0-1.625-.125h-1.2a.972.972,0,0,0-.612.133.842.842,0,0,0-.136.575" transform="translate(-278.389 -236.171)" fill="#4a4a4a"/>
      <path id="Caminho_2265" data-name="Caminho 2265" d="M485.442,243.019h.864a2.068,2.068,0,0,0,1.581-.6,2.3,2.3,0,0,0,.575-1.655,2.721,2.721,0,0,0-.782-2,2.682,2.682,0,0,0-1.992-.787.91.91,0,0,0-.623.163.807.807,0,0,0-.173.6l.008.273v3.411a.838.838,0,0,0,.1.5.651.651,0,0,0,.446.1m2.247.187,2.11,3.411.244.4q.976,1.57,1.8,1.623l.244.021c.09,0,.136.048.131.117,0,.087-.12.164-.339.232a2.47,2.47,0,0,1-.755.1,1.992,1.992,0,0,1-1.232-.415,4.827,4.827,0,0,1-1.111-1.349l-1.9-3.188-.106-.184a.634.634,0,0,0-.6-.343h-1.013l-.173.034c-.058.039-.089.129-.089.271v2.622l.009.336a4.942,4.942,0,0,0,.064.989.885.885,0,0,0,.309.472,1.835,1.835,0,0,0,1.013.366c.185.023.279.085.288.184s-.074.168-.253.168c-.072,0-.225-.014-.455-.039a9.074,9.074,0,0,0-.967-.037l-.734-.011-.4.011a5.534,5.534,0,0,0-.628.041c-.195.023-.332.035-.412.035-.125,0-.19-.057-.19-.175,0-.081.064-.138.19-.162a.99.99,0,0,0,.8-.612,6.02,6.02,0,0,0,.193-1.9v-6.022l-.012-.876c0-.875-.283-1.36-.833-1.46l-.362-.056c-.163-.039-.244-.1-.244-.2s.085-.168.26-.168c.039,0,.221.009.534.032.184.016.407.025.677.025.237,0,.64-.018,1.2-.057.412-.033.772-.041,1.082-.041a4.129,4.129,0,0,1,2.649.725,2.611,2.611,0,0,1,.895,2.157,3.2,3.2,0,0,1-1.887,2.921" transform="translate(-291.877 -236.198)" fill="#4a4a4a"/>
      <path id="Caminho_2266" data-name="Caminho 2266" d="M513.478,237.144a3.283,3.283,0,0,1,1.383.262l.529.237a.24.24,0,0,0,.136.041.269.269,0,0,0,.182-.086l.108-.1a.1.1,0,0,1,.085-.03c.129-.005.19.129.19.407,0,.1.035.378.1.845l.127.866c.022.182.037.3.037.343,0,.177-.058.264-.164.264-.083,0-.165-.136-.248-.408a2.774,2.774,0,0,0-1.117-1.494,3.177,3.177,0,0,0-1.876-.589,1.89,1.89,0,0,0-1.374.529,1.776,1.776,0,0,0-.554,1.331,2.091,2.091,0,0,0,1.042,1.855,17.482,17.482,0,0,0,1.821.727c1.881.679,2.822,1.783,2.822,3.326a3.4,3.4,0,0,1-1.037,2.56,3.7,3.7,0,0,1-2.67,1,5.237,5.237,0,0,1-1.291-.184,3.112,3.112,0,0,1-1.038-.426.5.5,0,0,1-.184-.216,4.185,4.185,0,0,1-.134-.585c-.016-.041-.076-.3-.191-.76a4.6,4.6,0,0,1-.2-1.07c0-.17.053-.255.155-.244s.175.145.249.414a3.258,3.258,0,0,0,1.158,1.744,3.02,3.02,0,0,0,1.92.7,2.488,2.488,0,0,0,1.777-.677,2.166,2.166,0,0,0,.729-1.648,2.076,2.076,0,0,0-.672-1.57,7.187,7.187,0,0,0-1.984-.928,6.287,6.287,0,0,1-2.4-1.4,2.76,2.76,0,0,1-.709-1.972,2.882,2.882,0,0,1,.923-2.213,3.339,3.339,0,0,1,2.371-.854" transform="translate(-306.634 -236.06)" fill="#4a4a4a"/>
      <path id="Caminho_2267" data-name="Caminho 2267" d="M535.4,239.954v6.281a5.877,5.877,0,0,0,.127,1.55,1.368,1.368,0,0,0,.377.606,1.506,1.506,0,0,0,.707.247c.255.042.384.113.384.209,0,.134-.082.194-.237.194a1.757,1.757,0,0,1-.292-.025,6.044,6.044,0,0,0-.808-.035l-1.109-.021-.9.06a3.4,3.4,0,0,1-.364.021c-.136,0-.207-.057-.207-.17,0-.1.081-.164.237-.189a.953.953,0,0,0,.748-.44,3.584,3.584,0,0,0,.169-1.391v-7.184a3.014,3.014,0,0,0-.218-1.4,1.288,1.288,0,0,0-.93-.488c-.157-.032-.24-.1-.244-.193,0-.124.069-.18.221-.18.043,0,.089,0,.138,0a11.052,11.052,0,0,0,1.483.076c.375,0,.7-.007.971-.027l.509-.049c.1,0,.161,0,.193,0,.14,0,.207.049.207.154s-.067.171-.2.219l-.4.171q-.56.231-.561,2.007" transform="translate(-318.838 -236.198)" fill="#4a4a4a"/>
      <path id="Caminho_2268" data-name="Caminho 2268" d="M552.24,238.788v8.621a.7.7,0,0,0,.469.7,5.307,5.307,0,0,0,1.033.3,5.653,5.653,0,0,0,1.066.126,4.048,4.048,0,0,0,2.346-.722,4.589,4.589,0,0,0,1.774-4.1,7.458,7.458,0,0,0-.553-2.894,5,5,0,0,0-1.521-2.072,4.538,4.538,0,0,0-2.878-.93,2.6,2.6,0,0,0-1.535.287.893.893,0,0,0-.2.688m-1.165.665a2.3,2.3,0,0,0-.262-1.245,1.118,1.118,0,0,0-.862-.462c-.166-.021-.253-.074-.253-.173s.065-.157.2-.157l.6.03c.062.005.239.007.535.007.517,0,.914-.014,1.2-.037l.708-.079c.307-.025.645-.037,1.011-.037a6.036,6.036,0,0,1,4.7,1.72,5.771,5.771,0,0,1,1.429,4.028,6.687,6.687,0,0,1-.626,2.908,5.131,5.131,0,0,1-1.741,2.086,5.3,5.3,0,0,1-3.071.967c-.133,0-.37-.018-.706-.044-.681-.051-1.277-.077-1.776-.077a10.2,10.2,0,0,0-1.425.094c-.182.028-.327.046-.433.053-.177.007-.27-.055-.27-.191,0-.094.078-.154.217-.189a.928.928,0,0,0,.67-.419,3.143,3.143,0,0,0,.156-1.23Z" transform="translate(-327.827 -236.142)" fill="#4a4a4a"/>
      <path id="Caminho_2269" data-name="Caminho 2269" d="M583.59,242.852l-1.2-3.319-.062-.177c-.062-.177-.128-.269-.2-.274-.035,0-.078.046-.122.159l-1.491,3.628a1,1,0,0,0-.1.31c0,.147.119.217.35.217l.207.013h2.309c.253,0,.38-.074.38-.212a.779.779,0,0,0-.039-.193ZM583.5,244.2h-2.773a1.45,1.45,0,0,0-.7.1,1.828,1.828,0,0,0-.37.674l-.5,1.232a3.862,3.862,0,0,0-.336,1.257.776.776,0,0,0,.179.575,1.545,1.545,0,0,0,.706.3c.154.037.233.1.239.2s-.07.138-.216.138c-.055,0-.145,0-.262-.005l-.73-.051c-.241-.005-.523-.016-.845-.016a2.484,2.484,0,0,0-.341.016c-.262.03-.4.044-.428.044-.136,0-.205-.049-.205-.159a.18.18,0,0,1,.132-.18l.281-.091c.1-.032.241-.166.408-.408a3.789,3.789,0,0,0,.434-.743l.221-.55,3.927-9.566c.065-.168.14-.255.219-.255s.151.082.207.244l3.289,9.23.166.454a4.126,4.126,0,0,0,.6,1.264,1.914,1.914,0,0,0,.96.389c.16.03.235.1.23.2s-.076.14-.214.14c-.047,0-.145-.007-.29-.018-.263-.025-.736-.044-1.416-.044a9.327,9.327,0,0,0-1.325.055,1.687,1.687,0,0,1-.239.034c-.133,0-.2-.058-.2-.173,0-.091.067-.149.193-.174l.237-.055c.254-.056.38-.249.38-.573a7.018,7.018,0,0,0-.463-1.771l-.384-1.107a1.507,1.507,0,0,0-.252-.534,1.076,1.076,0,0,0-.516-.072" transform="translate(-342.344 -235.828)" fill="#4a4a4a"/>
      <path id="Caminho_2270" data-name="Caminho 2270" d="M609.619,238.788v8.621a.693.693,0,0,0,.467.7,5.252,5.252,0,0,0,1.031.3,5.667,5.667,0,0,0,1.064.126,4.057,4.057,0,0,0,2.352-.722,4.592,4.592,0,0,0,1.77-4.1,7.358,7.358,0,0,0-.555-2.894,4.934,4.934,0,0,0-1.521-2.072,4.525,4.525,0,0,0-2.877-.93,2.6,2.6,0,0,0-1.533.287.881.881,0,0,0-.2.688m-1.169.665a2.3,2.3,0,0,0-.262-1.245,1.112,1.112,0,0,0-.859-.462c-.172-.021-.258-.074-.258-.173s.071-.157.2-.157l.6.03c.057.005.239.007.534.007.515,0,.911-.014,1.2-.037l.713-.079c.3-.025.638-.037,1.006-.037a6.031,6.031,0,0,1,4.7,1.72,5.763,5.763,0,0,1,1.427,4.028,6.763,6.763,0,0,1-.62,2.908,5.114,5.114,0,0,1-1.747,2.086,5.286,5.286,0,0,1-3.067.967c-.133,0-.368-.018-.7-.044-.681-.051-1.277-.077-1.781-.077a10.1,10.1,0,0,0-1.42.094c-.186.028-.329.046-.435.053-.178.007-.269-.055-.269-.191,0-.094.073-.154.216-.189a.928.928,0,0,0,.67-.419,3.187,3.187,0,0,0,.154-1.23Z" transform="translate(-358.421 -236.142)" fill="#4a4a4a"/>
      <path id="Caminho_2271" data-name="Caminho 2271" d="M640.282,238.791v3.383a.91.91,0,0,0,.067.463c.039.056.172.08.391.08h1.176a6.845,6.845,0,0,0,1.271-.094,1.019,1.019,0,0,0,.534-.244,1.894,1.894,0,0,0,.219-.707c.028-.143.092-.207.2-.2s.15.076.15.223c0,.039,0,.1-.008.186-.046.545-.069,1.032-.069,1.478q0,.506.048,1.013c.011.109.012.191.012.24,0,.138-.049.21-.145.21-.113,0-.173-.062-.2-.184l-.048-.237a1.136,1.136,0,0,0-.368-.762,1.614,1.614,0,0,0-.925-.2H640.9a.955.955,0,0,0-.5.083.366.366,0,0,0-.128.334l.007.276v3.093c0,.474.08.771.232.889a2.4,2.4,0,0,0,1.181.177q3,0,3.853-1.485c.056-.094.115-.145.17-.152.1,0,.145.069.145.219a2.315,2.315,0,0,1-.56,1.292,2.041,2.041,0,0,1-1.7.9q-.217,0-.594-.032a23.931,23.931,0,0,0-2.415-.156,12,12,0,0,0-1.887.1,2.086,2.086,0,0,1-.4.064c-.163,0-.246-.064-.246-.182,0-.092.067-.16.2-.2l.294-.09c.362-.11.547-.5.547-1.174l.008-.543v-7.089a3.576,3.576,0,0,0-.239-1.616.983.983,0,0,0-.937-.419c-.148,0-.219-.046-.219-.152,0-.154.113-.228.341-.228a3.928,3.928,0,0,1,.513.037,21.855,21.855,0,0,0,2.627.134c.621,0,1.171-.011,1.651-.035l1.086-.056c.3-.014.483-.023.548-.035a2.112,2.112,0,0,1,.308-.032.216.216,0,0,1,.247.242,1.532,1.532,0,0,1-.018.191,6.683,6.683,0,0,0-.063.668l-.032.493a4.327,4.327,0,0,1-.076.606.183.183,0,0,1-.175.129c-.1,0-.147-.075-.147-.253v-.216a1.4,1.4,0,0,0-.094-.514.821.821,0,0,0-.585-.5,7.087,7.087,0,0,0-1.623-.125h-1.2a.948.948,0,0,0-.61.133.825.825,0,0,0-.14.575" transform="translate(-374.764 -236.171)" fill="#4a4a4a"/>
      <path id="Caminho_2272" data-name="Caminho 2272" d="M251.377,285.08l.4,3.317.039.349-.039.134a.228.228,0,0,1-.189.137c-.1.008-.253-.183-.453-.582q-2.357-4.516-6.4-4.517a6.315,6.315,0,0,0-5.071,2.164,8.806,8.806,0,0,0-1.853,5.923,11.434,11.434,0,0,0,2.06,7.057,6.369,6.369,0,0,0,5.306,2.741,7.139,7.139,0,0,0,3.726-1.105,6.177,6.177,0,0,0,2.534-2.7c.216-.487.386-.737.5-.745.134-.009.2.081.2.267l-.014.147-.049.307-.292,1.694-.048.253a1.261,1.261,0,0,1-.594.746,11,11,0,0,1-6.411,2.032,8.569,8.569,0,0,1-6.544-2.639,9.727,9.727,0,0,1-2.481-6.953,10.3,10.3,0,0,1,2.569-7.158,8.307,8.307,0,0,1,6.45-2.848,9.471,9.471,0,0,1,4.891,1.311l.5.29.2.1.21.083a.362.362,0,0,0,.189-.115.852.852,0,0,1,.38-.218c.134,0,.223.173.265.527" transform="translate(-160.394 -260.569)" fill="#4a4a4a"/>
      <path id="Caminho_2273" data-name="Caminho 2273" d="M285.882,292.516l-1.975-5.476-.1-.285c-.1-.3-.21-.449-.325-.458-.06-.011-.127.078-.2.26l-2.456,5.987a1.777,1.777,0,0,0-.17.507c0,.239.194.362.585.362l.339.014h3.807c.419,0,.628-.117.628-.346a1.373,1.373,0,0,0-.064-.316Zm-.15,2.224h-4.56a2.418,2.418,0,0,0-1.16.168,3,3,0,0,0-.6,1.109l-.831,2.034a6.438,6.438,0,0,0-.555,2.081,1.266,1.266,0,0,0,.3.937,2.519,2.519,0,0,0,1.169.5c.249.056.377.168.385.327s-.1.23-.35.23c-.092,0-.237-.012-.43-.016l-1.2-.078c-.4-.023-.867-.032-1.4-.032-.242,0-.433.006-.566.02-.426.051-.663.078-.7.078-.225,0-.338-.089-.338-.255a.29.29,0,0,1,.211-.3l.469-.152a1.813,1.813,0,0,0,.679-.675,6.373,6.373,0,0,0,.709-1.222l.359-.911,6.484-15.78c.108-.283.23-.421.368-.421s.242.134.337.405l5.419,15.223.278.751a6.694,6.694,0,0,0,.986,2.081,3.071,3.071,0,0,0,1.586.644c.26.057.384.165.377.338-.011.154-.127.23-.357.23-.073,0-.232-.009-.476-.03-.437-.044-1.215-.064-2.332-.064a16.9,16.9,0,0,0-2.192.08,2.117,2.117,0,0,1-.391.056c-.215,0-.325-.1-.325-.287,0-.141.1-.238.315-.283l.391-.094c.417-.092.628-.4.628-.946a11.356,11.356,0,0,0-.769-2.923L287,295.739a2.547,2.547,0,0,0-.412-.88,1.764,1.764,0,0,0-.861-.119" transform="translate(-181.281 -260.182)" fill="#4a4a4a"/>
      <path id="Caminho_2274" data-name="Caminho 2274" d="M332.719,289v11.581a15.512,15.512,0,0,1-.063,1.9c-.041.23-.159.336-.352.327a.439.439,0,0,1-.29-.124l-.277-.363L321.111,289l-.127-.152a.238.238,0,0,0-.177-.085c-.157,0-.239.212-.239.624v9.38l-.013.582.037.981a2.089,2.089,0,0,0,.431,1.259,2.472,2.472,0,0,0,1.331.512c.278.034.417.154.417.352,0,.181-.086.269-.26.269a2.829,2.829,0,0,1-.38-.026c-.092-.018-.46-.046-1.1-.082l-1.288-.069-.6.025a6.813,6.813,0,0,0-.93.064,3.319,3.319,0,0,1-.467.051c-.221,0-.336-.09-.353-.262-.009-.129.11-.248.353-.336a2.584,2.584,0,0,0,1.429-1.069,4.674,4.674,0,0,0,.372-2.166v-9.4a8.469,8.469,0,0,0-.7-3.775,2.616,2.616,0,0,0-2-1.565c-.226-.039-.338-.141-.338-.313s.092-.255.276-.255a1.351,1.351,0,0,1,.2.016l.516.011.845.027.2-.013c.2-.005.358-.014.467-.014a.864.864,0,0,1,.631.4l11.594,14.407c.186.225.3.34.354.327.085-.008.129-.094.14-.261V291.6l.009-1.867-.148-3.174a2.7,2.7,0,0,0-.623-1.669,3.5,3.5,0,0,0-1.8-.727c-.24-.042-.361-.161-.361-.332s.12-.262.361-.262c.112,0,.287.014.532.035a20.359,20.359,0,0,0,2.332.1,7.552,7.552,0,0,0,1.248-.08,3.1,3.1,0,0,1,.617-.085c.217,0,.336.094.352.29.007.12-.074.209-.254.266a1.473,1.473,0,0,0-1.01.688,4.437,4.437,0,0,0-.249,1.814v1.489Z" transform="translate(-203.48 -260.803)" fill="#4a4a4a"/>
      <path id="Caminho_2275" data-name="Caminho 2275" d="M366.845,285.789v14.228a1.154,1.154,0,0,0,.771,1.162,9.761,9.761,0,0,0,1.7.484,9.371,9.371,0,0,0,1.757.2,6.673,6.673,0,0,0,3.876-1.185q2.92-1.989,2.921-6.761a12.278,12.278,0,0,0-.911-4.78,8.3,8.3,0,0,0-2.514-3.421,7.446,7.446,0,0,0-4.746-1.531,4.344,4.344,0,0,0-2.528.47,1.468,1.468,0,0,0-.329,1.13m-1.927,1.1a3.739,3.739,0,0,0-.432-2.048,1.808,1.808,0,0,0-1.425-.765c-.273-.029-.414-.122-.414-.283,0-.181.112-.273.329-.273l.994.062c.1,0,.4.009.886.009.847,0,1.5-.023,1.977-.071l1.173-.122c.5-.049,1.061-.072,1.664-.072q5.169,0,7.751,2.85a9.5,9.5,0,0,1,2.357,6.648,11.067,11.067,0,0,1-1.036,4.8,8.445,8.445,0,0,1-2.871,3.44,8.752,8.752,0,0,1-5.066,1.592c-.219,0-.6-.028-1.162-.071q-1.685-.122-2.937-.12a15.981,15.981,0,0,0-2.339.147c-.3.048-.547.074-.72.085-.3.018-.446-.092-.446-.311,0-.154.12-.258.356-.313a1.5,1.5,0,0,0,1.107-.693,5.219,5.219,0,0,0,.255-2.034Z" transform="translate(-228.082 -260.689)" fill="#4a4a4a"/>
      <path id="Caminho_2276" data-name="Caminho 2276" d="M411.2,287.724v10.363a9.672,9.672,0,0,0,.212,2.56,2.2,2.2,0,0,0,.624,1,2.624,2.624,0,0,0,1.165.41c.421.062.632.177.632.337,0,.218-.131.328-.395.328a3.273,3.273,0,0,1-.476-.046,9.644,9.644,0,0,0-1.336-.062l-1.823-.03-1.491.1a5.948,5.948,0,0,1-.6.043q-.34,0-.339-.283c0-.161.126-.271.387-.313a1.626,1.626,0,0,0,1.238-.725,6.048,6.048,0,0,0,.276-2.306V287.25a4.938,4.938,0,0,0-.359-2.307,2.092,2.092,0,0,0-1.531-.807c-.261-.055-.394-.161-.4-.325-.009-.2.115-.3.364-.3a1.481,1.481,0,0,1,.228.014,18.4,18.4,0,0,0,2.447.124c.621,0,1.153-.014,1.6-.046l.843-.078c.161-.013.267-.014.316-.014.226,0,.341.083.341.256s-.111.287-.329.368l-.654.274c-.622.26-.932,1.361-.932,3.313" transform="translate(-251.722 -260.786)" fill="#4a4a4a"/>
      <path id="Caminho_2277" data-name="Caminho 2277" d="M432.72,285.789v14.228a1.154,1.154,0,0,0,.767,1.162,9.783,9.783,0,0,0,1.7.484,9.366,9.366,0,0,0,1.752.2,6.681,6.681,0,0,0,3.881-1.185q2.923-1.989,2.921-6.761a12.28,12.28,0,0,0-.914-4.78,8.313,8.313,0,0,0-2.509-3.421,7.462,7.462,0,0,0-4.747-1.531,4.334,4.334,0,0,0-2.53.47,1.458,1.458,0,0,0-.325,1.13m-1.929,1.1a3.831,3.831,0,0,0-.426-2.048,1.832,1.832,0,0,0-1.427-.765c-.277-.029-.419-.122-.419-.283,0-.181.113-.273.329-.273l1,.062c.1,0,.394.009.884.009q1.271,0,1.975-.071l1.174-.122c.5-.049,1.057-.072,1.662-.072q5.169,0,7.749,2.85a9.5,9.5,0,0,1,2.359,6.648,11.066,11.066,0,0,1-1.033,4.8,8.459,8.459,0,0,1-2.871,3.44,8.772,8.772,0,0,1-5.07,1.592c-.215,0-.6-.028-1.159-.071-1.124-.081-2.106-.12-2.937-.12a16.06,16.06,0,0,0-2.343.147c-.3.048-.545.074-.72.085-.294.018-.441-.092-.441-.311,0-.154.119-.258.354-.313a1.516,1.516,0,0,0,1.109-.693,5.3,5.3,0,0,0,.253-2.034Z" transform="translate(-263.208 -260.689)" fill="#4a4a4a"/>
      <path id="Caminho_2278" data-name="Caminho 2278" d="M481.318,284a5.649,5.649,0,0,0-4.652,2.155,9.113,9.113,0,0,0-1.722,5.823,11.236,11.236,0,0,0,2.2,7.049,6.594,6.594,0,0,0,5.405,2.87,5.963,5.963,0,0,0,4.829-2.337,9.087,9.087,0,0,0,1.906-5.929,10.387,10.387,0,0,0-2.283-6.88A7.1,7.1,0,0,0,481.318,284m.812-.9a8.514,8.514,0,0,1,6.473,2.67,9.558,9.558,0,0,1,2.525,6.843,10.445,10.445,0,0,1-2.546,7.253,8.373,8.373,0,0,1-6.516,2.832,8.576,8.576,0,0,1-6.586-2.71,10.02,10.02,0,0,1-2.513-7.1,11.265,11.265,0,0,1,.661-3.775,9.214,9.214,0,0,1,1.782-3.131,8.5,8.5,0,0,1,3-2.11,9.355,9.355,0,0,1,3.719-.774" transform="translate(-286.91 -260.568)" fill="#4a4a4a"/>
      <path id="Caminho_2279" data-name="Caminho 2279" d="M548.387,288.607c-.72,1.372-1.193,2.33-1.429,2.859l-1.123,2.642-1.291,2.9q-.1.252-1.057,2.6c-.264.647-.489,1.174-.681,1.584-.113.253-.189.424-.23.53-.167.431-.347.644-.536.644s-.391-.225-.574-.677c-.036-.079-.149-.336-.354-.755l-.253-.578-4.739-11.217-.288,6.844q-.037.842-.038,3.37c0,1.623.519,2.52,1.562,2.7.515.086.774.226.774.406,0,.209-.127.313-.37.313a4.526,4.526,0,0,1-.467-.027q-1.405-.14-2.172-.141a12.382,12.382,0,0,0-1.763.127,2.971,2.971,0,0,1-.387.041c-.253,0-.379-.1-.379-.3,0-.15.1-.253.3-.3a1.9,1.9,0,0,0,1.288-.942,6.362,6.362,0,0,0,.44-2.408l.175-4.01q.188-4.355.187-5.5a8.571,8.571,0,0,0-.589-3.646,2.679,2.679,0,0,0-1.982-1.459c-.249-.044-.378-.157-.378-.338,0-.2.106-.3.314-.3.075,0,.214.011.418.027a7.031,7.031,0,0,0,.857.028c.686,0,1.123-.007,1.306-.028a3.627,3.627,0,0,1,.47-.041c.357,0,.661.293.907.871l.137.316,5.253,12.428.642,1.424c.092.239.157.361.2.361s.117-.091.191-.266l.151-.371.114-.275,5.92-13.921a2.67,2.67,0,0,1,.281-.548.464.464,0,0,1,.334-.1,5.215,5.215,0,0,1,.553.055,4.172,4.172,0,0,0,.418.012,11.31,11.31,0,0,0,1.275-.055c.147-.006.268-.018.362-.025.168-.013.253.079.253.267a.315.315,0,0,1-.253.327l-.537.15a1.273,1.273,0,0,0-.905.864,7.185,7.185,0,0,0-.259,2.29l.076,3.336.237,7.515.064,1.747a2.5,2.5,0,0,0,.353,1.509,1.98,1.98,0,0,0,1.286.609c.444.072.668.193.668.368s-.155.268-.465.268c-.092,0-.2,0-.317-.01l-.98-.111a9.788,9.788,0,0,0-1.057-.054c-.262,0-.672.018-1.23.057q-1.308.08-1.51.079c-.242,0-.366-.083-.366-.246,0-.143.107-.244.317-.308a1.5,1.5,0,0,0,.993-.722,4.15,4.15,0,0,0,.255-1.743l-.05-2.258Z" transform="translate(-318.41 -260.755)" fill="#4a4a4a"/>
      <path id="Caminho_2280" data-name="Caminho 2280" d="M588.349,285.805v5.577a1.637,1.637,0,0,0,.108.773c.073.088.288.129.651.129h1.942a10.539,10.539,0,0,0,2.092-.165,1.643,1.643,0,0,0,.884-.4,2.971,2.971,0,0,0,.363-1.167c.044-.223.152-.334.325-.327s.242.136.242.372c0,.065,0,.169-.014.306-.076.889-.112,1.708-.112,2.44,0,.56.026,1.116.078,1.671a3.62,3.62,0,0,1,.023.4c0,.228-.079.347-.244.347s-.286-.106-.322-.313l-.074-.378a1.893,1.893,0,0,0-.6-1.263,2.7,2.7,0,0,0-1.536-.33h-2.78a1.73,1.73,0,0,0-.824.134.647.647,0,0,0-.207.558l.01.458v5.094c0,.786.133,1.269.386,1.469a3.883,3.883,0,0,0,1.945.293c3.3,0,5.416-.822,6.355-2.45.1-.159.191-.243.286-.253.155-.006.23.115.23.36a3.812,3.812,0,0,1-.918,2.135,3.357,3.357,0,0,1-2.8,1.488c-.247,0-.577-.018-.987-.053q-2.408-.249-3.982-.249a19.967,19.967,0,0,0-3.112.166,3.919,3.919,0,0,1-.66.1c-.263,0-.4-.1-.4-.3,0-.153.106-.26.323-.324l.479-.154c.608-.185.907-.831.907-1.939l.018-.9v-11.7a5.837,5.837,0,0,0-.405-2.664,1.612,1.612,0,0,0-1.538-.688c-.244,0-.367-.087-.367-.256,0-.255.191-.38.569-.38a6.542,6.542,0,0,1,.842.072,37.02,37.02,0,0,0,4.336.217q1.538,0,2.724-.055l1.788-.094c.5-.023.8-.039.907-.057a3.075,3.075,0,0,1,.507-.056c.278,0,.412.131.412.4a1.877,1.877,0,0,1-.035.316q-.04.2-.1,1.1l-.051.815a5.676,5.676,0,0,1-.133,1,.282.282,0,0,1-.281.215q-.242.016-.242-.419v-.356a2.354,2.354,0,0,0-.149-.842,1.362,1.362,0,0,0-.972-.829,11.327,11.327,0,0,0-2.679-.207h-1.979a1.536,1.536,0,0,0-1,.216,1.352,1.352,0,0,0-.23.948" transform="translate(-346.181 -260.738)" fill="#4a4a4a"/>
      <path id="Caminho_2281" data-name="Caminho 2281" d="M634.237,289v11.581a16.6,16.6,0,0,1-.06,1.9c-.044.23-.162.336-.357.327a.443.443,0,0,1-.288-.124l-.279-.363L622.629,289l-.127-.152a.23.23,0,0,0-.175-.085c-.159,0-.239.212-.239.624v9.38l-.013.582.035.981a2.11,2.11,0,0,0,.43,1.259,2.5,2.5,0,0,0,1.337.512c.279.034.417.154.417.352a.236.236,0,0,1-.265.269,2.885,2.885,0,0,1-.378-.026c-.094-.018-.459-.046-1.1-.082l-1.285-.069-.609.025a6.813,6.813,0,0,0-.93.064,3.291,3.291,0,0,1-.465.051c-.221,0-.336-.09-.352-.262-.011-.129.107-.248.352-.336a2.584,2.584,0,0,0,1.428-1.069,4.7,4.7,0,0,0,.372-2.166v-9.4a8.584,8.584,0,0,0-.689-3.775,2.632,2.632,0,0,0-2.009-1.565c-.223-.039-.338-.141-.338-.313s.093-.255.278-.255a1.323,1.323,0,0,1,.2.016l.516.011.846.027.2-.013c.2-.005.357-.014.471-.014a.866.866,0,0,1,.63.4l11.592,14.407c.182.225.3.34.354.327.083-.008.131-.094.136-.261V291.6l.014-1.867-.15-3.174a2.716,2.716,0,0,0-.621-1.669,3.517,3.517,0,0,0-1.8-.727c-.242-.042-.364-.161-.364-.332s.122-.262.364-.262c.11,0,.287.014.533.035a20.318,20.318,0,0,0,2.329.1,7.563,7.563,0,0,0,1.25-.08,3.094,3.094,0,0,1,.617-.085c.218,0,.336.094.352.29.009.12-.077.209-.253.266a1.478,1.478,0,0,0-1.013.688,4.5,4.5,0,0,0-.247,1.814v1.489Z" transform="translate(-364.265 -260.803)" fill="#4a4a4a"/>
      <path id="Caminho_2282" data-name="Caminho 2282" d="M668.364,285.789v14.228a1.159,1.159,0,0,0,.767,1.162,9.668,9.668,0,0,0,1.707.484,9.336,9.336,0,0,0,1.752.2,6.683,6.683,0,0,0,3.88-1.185q2.918-1.989,2.923-6.761a12.221,12.221,0,0,0-.916-4.78,8.281,8.281,0,0,0-2.509-3.421,7.467,7.467,0,0,0-4.749-1.531,4.346,4.346,0,0,0-2.528.47,1.46,1.46,0,0,0-.325,1.13m-1.931,1.1a3.8,3.8,0,0,0-.428-2.048,1.813,1.813,0,0,0-1.425-.765c-.272-.029-.415-.122-.415-.283,0-.181.111-.273.325-.273l1,.062c.1,0,.394.009.881.009.845,0,1.508-.023,1.98-.071l1.169-.122c.5-.049,1.059-.072,1.668-.072q5.163,0,7.747,2.85a9.518,9.518,0,0,1,2.357,6.648,11.066,11.066,0,0,1-1.033,4.8,8.425,8.425,0,0,1-2.875,3.44,8.754,8.754,0,0,1-5.068,1.592c-.214,0-.6-.028-1.158-.071q-1.689-.122-2.937-.12a16.071,16.071,0,0,0-2.344.147c-.3.048-.542.074-.718.085-.292.018-.44-.092-.44-.311,0-.154.117-.258.352-.313a1.519,1.519,0,0,0,1.112-.693,5.289,5.289,0,0,0,.249-2.034Z" transform="translate(-388.867 -260.689)" fill="#4a4a4a"/>
      <path id="Caminho_2283" data-name="Caminho 2283" d="M712.678,285.805v5.577a1.5,1.5,0,0,0,.111.773c.067.088.283.129.644.129h1.939a10.578,10.578,0,0,0,2.1-.165,1.632,1.632,0,0,0,.884-.4,3.044,3.044,0,0,0,.363-1.167c.044-.223.15-.334.32-.327s.249.136.249.372c0,.065-.005.169-.016.306-.074.889-.113,1.708-.113,2.44,0,.56.027,1.116.074,1.671.017.178.026.313.026.4,0,.228-.08.347-.247.347s-.285-.106-.318-.313l-.078-.378a1.865,1.865,0,0,0-.6-1.263,2.685,2.685,0,0,0-1.535-.33H713.7a1.7,1.7,0,0,0-.822.134.643.643,0,0,0-.207.558l.011.458v5.094c0,.786.125,1.269.383,1.469a3.875,3.875,0,0,0,1.947.293c3.3,0,5.412-.822,6.353-2.45.094-.159.185-.243.286-.253.152-.006.23.115.23.36a3.813,3.813,0,0,1-.918,2.135,3.364,3.364,0,0,1-2.8,1.488q-.369,0-.983-.053-2.409-.249-3.986-.249a19.932,19.932,0,0,0-3.11.166,3.941,3.941,0,0,1-.656.1c-.269,0-.405-.1-.405-.3,0-.153.11-.26.325-.324l.483-.154c.6-.185.905-.831.905-1.939l.013-.9v-11.7a5.958,5.958,0,0,0-.4-2.664,1.629,1.629,0,0,0-1.544-.688c-.244,0-.366-.087-.366-.256,0-.255.189-.38.566-.38a6.665,6.665,0,0,1,.847.072,36.923,36.923,0,0,0,4.335.217c1.022,0,1.933-.018,2.717-.055l1.791-.094c.5-.023.8-.039.909-.057a3.048,3.048,0,0,1,.507-.056c.275,0,.414.131.414.4a1.592,1.592,0,0,1-.041.316c-.021.131-.056.5-.1,1.1l-.051.815a6.292,6.292,0,0,1-.128,1,.29.29,0,0,1-.285.215c-.161.011-.244-.129-.244-.419v-.356a2.4,2.4,0,0,0-.15-.842,1.353,1.353,0,0,0-.967-.829,11.355,11.355,0,0,0-2.68-.207H713.91a1.526,1.526,0,0,0-1,.216,1.341,1.341,0,0,0-.229.948" transform="translate(-412.478 -260.738)" fill="#4a4a4a"/>
      <path id="Caminho_2284" data-name="Caminho 2284" d="M749.514,283.1a5.378,5.378,0,0,1,2.279.426l.868.4a.5.5,0,0,0,.23.058.457.457,0,0,0,.3-.141l.177-.168a.157.157,0,0,1,.139-.051c.209-.011.317.212.317.675,0,.158.049.625.163,1.4l.2,1.425c.041.3.064.488.064.566,0,.283-.094.429-.271.429-.136,0-.274-.224-.41-.668a4.58,4.58,0,0,0-1.84-2.466,5.276,5.276,0,0,0-3.1-.973,3.125,3.125,0,0,0-2.27.884,2.914,2.914,0,0,0-.909,2.191,3.434,3.434,0,0,0,1.719,3.053,29.34,29.34,0,0,0,3,1.206q4.657,1.673,4.656,5.485a5.6,5.6,0,0,1-1.715,4.226,6.1,6.1,0,0,1-4.4,1.644,8.563,8.563,0,0,1-2.14-.3,5.165,5.165,0,0,1-1.7-.706.8.8,0,0,1-.3-.355,6.494,6.494,0,0,1-.228-.956c-.018-.078-.124-.49-.317-1.261a8.025,8.025,0,0,1-.329-1.77c0-.274.086-.408.26-.4.15.012.288.235.41.682a5.4,5.4,0,0,0,1.91,2.884,4.975,4.975,0,0,0,3.165,1.161,4.122,4.122,0,0,0,2.935-1.119,3.591,3.591,0,0,0,1.2-2.728,3.424,3.424,0,0,0-1.107-2.587,12.2,12.2,0,0,0-3.273-1.535,10.3,10.3,0,0,1-3.958-2.293,4.6,4.6,0,0,1-1.167-3.261,4.747,4.747,0,0,1,1.521-3.646,5.521,5.521,0,0,1,3.915-1.406" transform="translate(-431.279 -260.568)" fill="#4a4a4a"/>
      <path id="Caminho_2285" data-name="Caminho 2285" d="M132.806,256.748c.009.012.062-.063,0,.062a9.238,9.238,0,0,1-.665.987l-.006.033-.343.352-.175.177-.01.011c-.048.133.1-.285-.11.3l.005.009c.032.018-.032.053.168.2.644-.044.357-.287.447-.241l.048-.132.61-1.966c-.012.014-.02.018,0-.046.078-.274.2-.646.329-1.035l.049-.171a.238.238,0,0,0,0-.071l.154-.472c.375-1.835,1.593-4.136,1.233-5.492.173-.3-.058-1.374-.035-.513a7.883,7.883,0,0,1-.23,2.124c.112-.078-.26,1.46-.113,1.185-.113.41-.294,1.036-.288,1.072a6.471,6.471,0,0,1-.2,1.568,12.1,12.1,0,0,0-.173,1.25c0,.242.1-.559.1-.311a46.35,46.35,0,0,1,1.109-4.785c-.069-.868.824-1.6-.394-2.675a5,5,0,0,0-.23,1.338l-.018.663c.136.221-.274.032.334.631.422-.159.554-.378.189-.909-.935.919-1.053,2.764-1.908,5.062-.345,1.1-.7,2.235-1.008,3.2.183.122-.575.235.382.35-.129.661.108.026.141.112l.445-.49c.228-.341.419-.629.561-.838l.083-.161a13.453,13.453,0,0,0,1.171-3.147c.083-.417.177-.843.244-1.27-.049.191-.1.37-.155.523a9.6,9.6,0,0,0,.208-1.022c.154-.919.016-.407-.1-.069-.069.247-.03-.1-.131.288.058-.28.09-.428.145-.708-.014-.039-.162.872-.155.667l.163-.859c-.034.092-.2.98-.216.928a7.609,7.609,0,0,0,.166-.845c0-.012-.057.265-.083.41.152-.873.182-1.367.023-.575.048-.278.124-.667.169-.958-.025.148-.07.4-.1.535l.085-.5-.03.086-.067.375.059-.329-.08.276c-.083.386-.173.76-.221.967a17.924,17.924,0,0,1-1.572,4.85" transform="translate(-104.822 -241.938)" fill="#4a4a4a"/>
      <path id="Caminho_2286" data-name="Caminho 2286" d="M147.045,256.8c.012,0-.021-.09.058.03a4.84,4.84,0,0,0,.748,1.088l.037.011a1.656,1.656,0,0,0,.232.193c.147-.228-.15.638.363-.485l-.073-.078-.311-.3a9.069,9.069,0,0,1-.96-1.653c0,.02,0,.03-.032-.025-.12-.246-.251-.607-.4-.972l-.072-.165a.227.227,0,0,0-.037-.053l-.166-.458q-.538-1.363-1.02-2.8c-.28-.29-.075-1.407-.741-1.039.08.521.184,1.055.3,1.593l.333,1.333c.155.649.373,1.464.568,2.083.025-.117.594,1.339.557,1.011a6.178,6.178,0,0,0,.458.98c.112.03.26.356.941,1.121a2.267,2.267,0,0,0,.873.633c.189.058-.405-.239-.214-.177-2.2-1.816-2.755-5.486-3.337-8.577-.261.021.545-.38-.612-.071.042.113.083.247.133.4.1.3.218.682.361,1.119.273.866.64,1.931,1.049,3.013a14.2,14.2,0,0,0,1.508,3.013,3.634,3.634,0,0,0,.573.55c.64-.932-.055-.4.011-.732a4.068,4.068,0,0,1-.514-.727l-.082-.14a21.11,21.11,0,0,1-1.236-2.937l-.385-1.183c.037.19.072.366.1.52-.112-.41-.2-.828-.248-.979-.185-.879-.133-.377-.117-.016.034.251-.072-.074,0,.317-.065-.278-.09-.423-.136-.7-.035-.029.173.864.11.675l-.165-.856c-.022.1.17.979.138.94-.044-.145-.12-.8-.161-.854-.007-.007.04.283.067.421-.168-.873-.2-1.395-.168-.553a3.392,3.392,0,0,1,.018-1.047,2.391,2.391,0,0,0-.058.6,2.119,2.119,0,0,1,.042-.559l-.028.1a1.706,1.706,0,0,0-.03.426,1.691,1.691,0,0,1,.016-.37l-.048.32a5.955,5.955,0,0,0,.065,1.041,18.4,18.4,0,0,0,1.7,4.984" transform="translate(-111.772 -242.863)" fill="#4a4a4a"/>
      <path id="Caminho_2287" data-name="Caminho 2287" d="M133.6,270.4c.006-.013-.11-.025.069-.03.55-.013,1,.03,1.551.017l.039-.023,1.335.034,2.505-.014c-.023-.009-.03-.014.053-.02h.134c.014-.247.076.557.046-.555h-.074l-.315-.009-.713-.027-.216-.005a.205.205,0,0,0-.083.009l-.606-.041c-2.419-.088-4.946-.393-7.612.266l-.826.26c.11.469.526.159.762.276a7.8,7.8,0,0,0,2.58-.665c-.134-.023,1.655-.794,1.277-.7.5-.216,1.28-.377,1.316-.419a6.045,6.045,0,0,1,3.582-.021c.317.079-.734-.269-.414-.187a9.352,9.352,0,0,0-6.036.993,5.314,5.314,0,0,1-2.79.559l-.177-.012-.042,0c.01.263-.057-.6.019.6l.02-.005.092-.028.354-.1.71-.2c.494-.062.98-.159,1.486-.191a41.25,41.25,0,0,1,6.183.162l1.072.039c.118-.244.483.557.4-.539h-2.511c-1.245,0-2.281,0-2.885,0h-.219c-1.319,0-2.923,0-4.035.028l-1.549.053.656.039c-.525,0-1.054,0-1.256.011-1.123.029-.486.064-.055.113.308.021-.111.051.375.071l-.877,0c-.039.02,1.084-.014.838.02-.337-.005-.716.009-1.066.007.124.027,1.216.012,1.162.039-.19,0-.99-.037-1.054-.005-.014.009.338.009.511.009-1.079.011-1.671.041-.689.079-.342,0-.822-.016-1.188-.012h0c.179,0,.493.009.658.009l-.616,0,.108.014.469.009h-.412l.346.03c.49.019.956.051,1.218.057Z" transform="translate(-101.589 -252.719)" fill="#4a4a4a"/>
      <path id="Caminho_2288" data-name="Caminho 2288" d="M128.9,299.124c.006-.009-.12-.027.074-.03.612-.018,1.1.03,1.715.021l.042-.024,1.475.032,2.769-.014c-.023-.011-.034-.014.059-.023.378,0,.908.006,1.459.009l.244-.009a.218.218,0,0,0,.089-.012c.247,0,.465,0,.672,0,1.155-.217,3.137.405,3.66-.512-1.383.008-2.813-.023-4.289-.069l-1.86-.032c-.894-.02-2.037-.076-2.912-.076.133.058-1.993.117-1.566.2-.58.018-1.45.042-1.5.064a8.366,8.366,0,0,1-2.092.389c-.587.118-1.5.253-1.7.311-.324.078.772-.1.447-.021,4.376-.843,8.729-.393,13.245-.26.277-.267,1.57.644,2.328-.6-1.237.006-2.763.013-4.323.014-3.128,0-6.386,0-7.721,0h-.244c-1.455,0-3.223,0-4.457.026l-1.706.062c.261.014.511.028.723.043-.58,0-1.165-.007-1.386.009-1.241.033-.543.067-.063.118.344.027-.119.058.415.087l-.969-.007c-.046.023,1.2-.008.928.027-.375-.009-.792.006-1.181.006.134.028,1.345.008,1.28.042-.2,0-1.089-.042-1.16-.006-.014.007.37.007.568.007-1.2.007-1.853.041-.762.083-.382,0-.916-.018-1.315-.01h0c.2,0,.544.008.73.008l-.682,0,.119.016.518.009-.453,0,.386.035c.539.021,1.052.06,1.342.06Z" transform="translate(-98.628 -268.718)" fill="#4a4a4a"/>
      <path id="Caminho_2289" data-name="Caminho 2289" d="M141.024,237.68c-.005.014.03.032-.027.027-.186-.027-.325-.1-.516-.127l-.016.023-.455-.108-.459-.028c.042.258-.421-.566.041.571l.159-.1c-.009,0-.015-.007,0-.027a2.011,2.011,0,0,1,.377-.189l.065-.039.016-.025c.013-.279.267.5.058-.638-.171,0-.447.077-.512.007-.007.077-.217-.225-.1.194l.108-.357c.157-.47.162-.956.3-1.381,0-.158.3-.324.155-.393a7.17,7.17,0,0,1,.347.885c.064-.083.33.554.339.419.02.181.119.434.161.43.083.02.187.053.488.536a4.555,4.555,0,0,1,.145.679c.039.136-.009-.316.032-.186-.283-1.083-.571-1.188-.8-2.114-.327-.248.2-.843-.921-.921a2.071,2.071,0,0,0-.548,1.181,3.643,3.643,0,0,1-.191.769c-.516.969,1.4,1.271.755.336a5.017,5.017,0,0,0-.673.368c.063,1.232.363.33.532.642a7.718,7.718,0,0,1,.932.173l.071.011c-.339-.41-.265.854-.366,1.073-.013.191.012.389.018.583l.044-.242a4.134,4.134,0,0,0-.01.467c.016.419.056.186.115.027.023-.11.048.046.076-.133-.006.127-.007.194-.016.322.021.014.009-.4.036-.3l-.014.391c.03-.044.03-.448.056-.424,0,.069-.051.361-.019.386a.9.9,0,0,0,.014-.19c0,.4.018.615.067.253-.007.126-.025.3-.028.435.006-.067.016-.181.016-.24l-.009.223.014-.039.016-.17-.007.148.037-.124c.027-.175.067-.345.073-.442-.131-.949.49-1.1.021-2.62" transform="translate(-108.92 -234.821)" fill="#4a4a4a"/>
      <path id="Caminho_2290" data-name="Caminho 2290" d="M129.237,283.895c-.011-.007-.032.124-.023-.076.026-.63.1-1.124.166-1.738l-.013-.046.041-.359c-.075-.211.225.207-.181-.516l-.164-.062-.682-.256a5.127,5.127,0,0,0-1.363-.214,2.575,2.575,0,0,0-.689.058l-.347.056c.063,1.275.2.369.3.665-.02-.011-.032-.018.058-.016.36.041.854.1,1.376.161l.23.013a.228.228,0,0,0,.083-.018c.235.018.44.021.636.035,2.544.088,5.1-.157,7.877-.133.587-.013,1.174.007,1.736.046l.665.056c.3-.308.124-.541.209-.815a10.506,10.506,0,0,0-.124-1.5c-.025.145-.467-1.991-.458-1.547-.119-.585-.26-1.475-.274-1.523a1.562,1.562,0,0,1-.152-.541c.175-.124-.49-.5.373-.559,0,.276-.006.6-.018,1-.041.517-.154,1.542-.159,1.735-.013.35.112-.8.1-.449.048-.62.117-1.083.141-1.674l.021-.431.009-.219c.138,0-1.2-.037-.632-.014v.014l0,.029,0,.06.009.113a6.113,6.113,0,0,0,.069.891c.141,1.164.424,2.263.578,3.36a6.234,6.234,0,0,1,.073,1.607,9.359,9.359,0,0,1-.948-.071c-1.054-.066-2.107-.076-3.173-.066-.729-.01-3.526.167-6.429.018-.67.239-1.586-.727-2.027.372a3.979,3.979,0,0,1,1.917.067,5.971,5.971,0,0,1,.856.281c-.051-.564-.076.382-.11.465-.072.56-.1,1.032-.124,1.374l-.014.254-.021.28c1.049-.223.255-.217.477-.341l-.117-.568-.24-1.144c-.087-.783-.14-1.547-.209-2.168-.051-.576-.043-1.161-.066-1.745-.012.272-.026.525-.037.741,0-.6.006-1.19-.005-1.42.037-1.268-.039-.552-.11-.069-.023.356-.055-.127-.076.428a9.7,9.7,0,0,1,.035-1c-.035-.048-.039,1.231-.057.951,0-.386.021-.813.048-1.214-.056.138-.078,1.383-.087,1.32-.018-.212.065-1.119.044-1.2-.006-.014-.028.386-.044.584.067-1.228.08-1.912-.03-.787.03-.394.076-.94.1-1.353v0c-.014.2-.042.555-.056.746l.046-.7-.018.124-.042.531.03-.467-.056.392c-.057.554-.12,1.086-.14,1.389a31,31,0,0,0,.049,3.665,11.713,11.713,0,0,0,.212,1.828l.186.911.1.455.046.226c1.207-.2.348-.184.617-.287" transform="translate(-101.879 -256.25)" fill="#4a4a4a"/>
      <path id="Caminho_2291" data-name="Caminho 2291" d="M155.069,280.563c.012,0,.023-.041.029.029.014.221-.029.4-.016.615l.021.018-.02.535.078,1.01c0-.009.009-.014.016.019.02.134.039.331.058.531l.009.088.021.03.027.246a9.836,9.836,0,0,0,.394,1.441c.223.133-.119.711.569.486l-.049-.78-.046-.66c0-.325.023-.726.032-1.038-.023-.184-.6-.306-.534-.267a2.161,2.161,0,0,1-.286-.472c-.069-.023-.226-.169-.29-.776a4.754,4.754,0,0,1,.051-.681c-.007-.134-.084.308-.084.173a3.454,3.454,0,0,0,.1,1.337c-.071.359.933,1.148.637.718-.03.8-.025,1.609,0,2.422,1.19.032.193-.382.336-.743a9.336,9.336,0,0,1-.315-1.455,17.678,17.678,0,0,1-.152-2.712V280.6c.016-.522.019-1.151,0-1.593l-.037-.619-.041.26a3.51,3.51,0,0,0,0-.5c-.023-.443-.062-.191-.11-.021-.021.122-.053-.042-.078.145.005-.134.005-.2.009-.348-.02-.014,0,.428-.023.332v-.419c-.029.044-.016.479-.046.458,0-.074.046-.391.011-.417a.983.983,0,0,0-.011.2c0-.426-.033-.663-.072-.273,0-.136.02-.325.012-.467,0,.069-.01.193-.01.257l.009-.24-.02.042-.005.188,0-.163-.035.136c-.023.191-.056.377-.058.477Z" transform="translate(-117.366 -257.493)" fill="#4a4a4a"/>
      <path id="Caminho_2292" data-name="Caminho 2292" d="M121.109,287.37c-.306,0-1.047-.552-1.376.126a5.119,5.119,0,0,0-.1,1.867c0,1.971,4.474,1.57,7.283,1.252,1-.113-.419-.214.737-.2-2.141-.016-5.84-.422-6.3-.927.069-1.011.17-2.12-.249-2.12" transform="translate(-98.482 -262.73)" fill="#4a4a4a"/>
      <path id="Caminho_2293" data-name="Caminho 2293" d="M157.006,285.715c-.175-1.254,2.086-.6,1.869.074a17.036,17.036,0,0,0-.255,2.278c-.207,1.876-5.723,1.518-7.778,1.453-.842-.028.345-.336-.481-.327,2.134-.015,3.946-.895,6.1-.715.766-.845.58-1.137.585-2.272,0,.642-.042-1.133-.042-.491" transform="translate(-114.88 -261.581)" fill="#4a4a4a"/>
      <path id="Caminho_2294" data-name="Caminho 2294" d="M135.339,305.6c.016,0,.021-.092.028.055.028.46,0,.836.026,1.295l.018.034.006,1.107.083,2.088c.005-.018.016-.025.017.042.257.3-.535.665.582,1.128l.025-.182c0-.052-.006-.062-.013-.07l.074-.511a39.262,39.262,0,0,0,.175-6.353l-.07-1.4c-.028-.668-.039-1.531-.062-2.192-.067.108-.162-1.5-.218-1.169-.017-.438-.034-1.1-.051-1.134a4.641,4.641,0,0,1-.209-1.594c-.014-.462,0-1.162-.014-1.325-.019-.253-.034.592-.055.34.009,3.4.278,6.655.242,10.043a32.211,32.211,0,0,1-.327,5.108c.23.069-.582.444.5.272l-.018-.439-.028-.877c-.016-.575-.035-1.135-.053-1.65-.028-1.034-.055-1.895-.067-2.4l-.007-.181c-.032-1.1-.032-2.426-.072-3.352L135.784,301c-.013.2-.02.387-.03.551,0-.442-.005-.88-.018-1.045-.037-.932-.069-.407-.115-.048-.018.256-.053-.088-.07.311,0-.289,0-.435,0-.727-.021-.034.016.9-.013.7l-.013-.891c-.03.1,0,1.011-.03.965-.009-.154.03-.819,0-.875a3.949,3.949,0,0,0-.006.428c-.02-.9-.053-1.4-.085-.576,0-.285.011-.686,0-.99h0c0,.151,0,.414,0,.552l0-.516-.013.086v.395l0-.342-.027.29c-.02.4-.049.792-.049,1.013.009,1.768-.005,3.552.034,5.319" transform="translate(-106.851 -267.113)" fill="#4a4a4a"/>
      <path id="Caminho_2295" data-name="Caminho 2295" d="M148.448,311.131c.012,0,0-.122.041.071.126.592.179,1.087.294,1.666l.032.039.23,1.411.036.166c.273-.007-.593.129.613.009l.007-.082v-.344l.005-.677.023-1.367c-.011.029-.02.035-.02-.055.005-.377.02-.9.034-1.439v-.239c0-.064-.009-.083-.014-.088,0-.246.005-.467.005-.67a32.489,32.489,0,0,0-.265-4.062,15.558,15.558,0,0,0-.425-2.063c-.178-.1.211-.5-.44-.361l.011.532.012,1.086.039,1.829c-.011.884-.051,2.011-.069,2.872.076-.127.058,1.973.14,1.552-.016.575-.041,1.438-.017,1.48a9.736,9.736,0,0,1,.127,2.1c0,.594-.036,1.512-.027,1.72.018.331.051-.771.064-.44.034-2.212.083-4.382.129-6.565l.057-3.282v-2.912c-1.17.217-.267.284-.505.437a23.058,23.058,0,0,1,.632,6.625c.217,1.473-.593,3.257.452,4.33-.247-1.344-.456-2.47-.569-3.1l-.044-.232a14.251,14.251,0,0,1-.189-4.291l.058-1.7c-.025.264-.052.507-.075.72a11.324,11.324,0,0,0,.03-1.383c-.106-1.243-.078-.532-.112-.059-.019.339-.053-.12-.072.413a8.237,8.237,0,0,0-.028-.953,5.053,5.053,0,0,1,.007.909,6.623,6.623,0,0,0-.058-1.151,9.239,9.239,0,0,1,.018,1.249,5.617,5.617,0,0,0-.042-1.131c-.014-.014.049.36.039.547-.091-1.163-.278-1.754-.142-.722a6.125,6.125,0,0,0-.259-1.213l0,0c.048.183.122.5.17.663l-.167-.618.018.112.117.471-.11-.409.063.358a8.07,8.07,0,0,1,.127,1.252c.069,2.218-.573,4.639.016,6.977" transform="translate(-113.726 -270.816)" fill="#4a4a4a"/>
      <path id="Caminho_2296" data-name="Caminho 2296" d="M139.455,311.437c0-.014-.066-.019.025-.054a3.329,3.329,0,0,1,.819.012l.023-.03a2.135,2.135,0,0,1,.658.2,2.084,2.084,0,0,1,1,.755c0-.016.009-.032.032.007a2.238,2.238,0,0,1,.294.647l.039.119.032.037a1.327,1.327,0,0,1,.074.338l.065.532.014.138.007.03v.007c-.143.016,1.266-.129.672-.074h0l-.005-.007,0-.018-.021-.076-.074-.3a8.536,8.536,0,0,0-.389-1.179,6.614,6.614,0,0,0-1.4-2.086,5.454,5.454,0,0,0-.835-.639,4.376,4.376,0,0,0-1.474-.638c.049.072-1.077.093-.845.224a1.934,1.934,0,0,0-.753.172c-.035.111-.246.238-.863.716a5.454,5.454,0,0,0-.684.576c-.1.135.336-.228.225-.088,1.641-1.747,4.272-1.113,5.465,1.008a5.68,5.68,0,0,1,.6,1.211,6.883,6.883,0,0,1,.3,1.072l.037.148.005.036,0,.018c-.161.02,1.434-.151.76-.079v-.018l-.009-.087-.036-.362a3.325,3.325,0,0,0-3.693-3.156l-.14.02a4.2,4.2,0,0,0-2.312,1.113,3.771,3.771,0,0,0-.628.836,1.424,1.424,0,0,1,.3-.315,3.169,3.169,0,0,0-.463.695c-.238.732-.034.338.119.113.127-.152.027.1.209-.147a1.651,1.651,0,0,0-.23.49c-.016.019.253-.619.242-.449a2.01,2.01,0,0,0-.258.6c.037-.067.286-.68.332-.613-.074.083-.3.507-.269.564a1.5,1.5,0,0,0,.115-.281c-.232.618-.178.963-.037.424a3.519,3.519,0,0,0-.115.668l0-.007c.016-.1.042-.275.055-.368l-.046.349.027-.058.042-.266-.028.228.067-.186a2.8,2.8,0,0,1,.237-.615,3.663,3.663,0,0,1,2.721-1.9" transform="translate(-107.136 -274.458)" fill="#4a4a4a"/>
      <path id="Caminho_2297" data-name="Caminho 2297" d="M137.812,298.9c0-.01-.057-.01.023-.037a2.976,2.976,0,0,1,.677-.115l.014-.023a2.8,2.8,0,0,1,.571.039,2.1,2.1,0,0,1,.974.44c-.005-.017-.005-.024.028,0a1.8,1.8,0,0,1,.414.43l.071.074.032.02.147.251a4.5,4.5,0,0,1,.426.792c.223,0-.359.29.52.056l-.076-.268a1.5,1.5,0,0,0-.193-.508,1.967,1.967,0,0,0-1.762-.912,6.959,6.959,0,0,0-.828.034c-.387.033-.895.074-1.259.129.039.021-.831.352-.624.377a2.432,2.432,0,0,0-.564.327c-.019.091-.18.237-.632.707a1.374,1.374,0,0,0-.35.479c0,.083.113-.156.1-.071.969-1.437,3.22-1.791,4.908-1.322a1.4,1.4,0,0,1,.649.631l.1.371.028.1c1.077-.3.271-.154.493-.254l-.1-.239a5.634,5.634,0,0,0-.529-1,2.887,2.887,0,0,0-3.283-1.16l-.11.028a5.666,5.666,0,0,0-1.791,1l-.58.55.274-.187a3.343,3.343,0,0,0-.471.432c-.389.421-.131.223.051.115.126-.094,0,.074.188-.075-.127.12-.191.182-.318.3,0,.032.38-.387.315-.268l-.378.373c.062-.027.436-.415.436-.371a3.407,3.407,0,0,0-.376.357s.131-.113.189-.168c-.384.373-.545.636-.195.3-.113.124-.285.3-.407.431l.005,0c.062-.065.166-.177.226-.233l-.209.224.044-.032.164-.163-.138.145.138-.1c.175-.163.357-.3.451-.386a7.119,7.119,0,0,1,2.514-1.62" transform="translate(-106.483 -268.57)" fill="#4a4a4a"/>
      <path id="Caminho_2298" data-name="Caminho 2298" d="M127.987,310.474c-.011,0-.021.037-.034-.019-.018-.181.014-.327-.007-.508l-.02-.012V309.5l-.055-.809c-.006.008-.016.008-.018-.013-.011-.109-.011-.27-.011-.433l-.007-.069-.018-.02,0-.2c-.06-.787-.129-1.59-.118-2.453l-.011-.548a5.1,5.1,0,0,1,.106-.84c-.076.025-.005-.6-.094-.486.028-.175.073-.429.069-.445-.046-.051-.07-.2.041-.661.046-.18.158-.437.165-.505.014-.1-.115.207-.1.106a11.762,11.762,0,0,0-.654,3.977c0,.465.126,3.542.177,4.323l.007.069c.02.43.053.945.1,1.311l.069.495.028-.212a2.9,2.9,0,0,0,.021.409c.037.359.069.154.108.011.023-.1.056.033.077-.122,0,.112,0,.171,0,.283.018.011-.021-.353.016-.273l.011.344c.027-.035,0-.394.027-.379.009.067-.027.326.007.343a1.164,1.164,0,0,0,.005-.164c.014.355.051.55.078.225v.385l.005-.212v.2l.018-.032,0-.157,0,.133.023-.115c.016-.161.048-.311.046-.4,0-.7-.032-1.392-.065-2.085" transform="translate(-102.54 -270.642)" fill="#4a4a4a"/>
      <path id="Caminho_2299" data-name="Caminho 2299" d="M122.255,303.213c.009,0,.018-.035.03.017.018.167-.023.306-.005.474l.021.012-.021.4.03.764c.009-.007.014-.01.016.014.009.106.006.252.009.4v.067l.018.03v.182c.051.739.09,1.493.141,2.315l.048.515c.006.242,0,.556-.007.8.067-.037.1.552.172.43a1.9,1.9,0,0,0,.012.415c.062.039.129.163.165.589.007.169-.021.426-.006.481.018.1.042-.211.058-.122.027-1.24,0-2.429,0-3.687-.014-.426-.084-3.3-.094-4.04l-.006-.066c-.017-.407-.048-.893-.1-1.23l-.083-.472-.021.207c-.007-.161-.018-.323-.028-.385-.051-.339-.074-.142-.115-.007-.014.1-.053-.028-.069.12l-.011-.267c-.018-.01.03.329-.007.255l-.023-.323c-.02.04.012.37-.013.355-.01-.057.016-.3-.018-.316a.651.651,0,0,0,0,.156c-.028-.331-.072-.506-.088-.205l-.009-.361v.2l-.009-.188-.014.037v.141l0-.122-.023.1c-.01.154-.037.294-.035.379Z" transform="translate(-99.848 -269.967)" fill="#4a4a4a"/>
      <path id="Caminho_2300" data-name="Caminho 2300" d="M122.152,300.493l.01-.034c.066-.008.112.036.177.022l.007-.018.147.034.29,0,0-.018.154.006h.027l.011-.018.069.007c.272-.045.541-.137.835-.216l.18-.062.287-.039c-.021-.074.184-.139.129-.215.058,0,.147-.018.148-.038,0-.069.035-.146.179-.212.06-.016.154-.008.17-.021s-.081-.033-.049-.058c-.439.043-.859.158-1.291.188a5.053,5.053,0,0,1-1.386.062h-.023a1.53,1.53,0,0,0-.4-.07l-.166.018.055.051a.293.293,0,0,0-.129-.021c-.124,0-.07.055-.042.111.03.032-.028.055.017.09l-.09-.024c-.009.021.119.021.082.044l-.115-.023c.005.032.129.04.113.07-.02,0-.094-.067-.113-.035l.055.023c-.12-.023-.2-.009-.1.06l-.131-.046v0l.071.024-.065-.017.005.015.049.021-.048-.018.034.046c.046.034.09.082.119.088Z" transform="translate(-99.358 -269.369)" fill="#4a4a4a"/>
      <path id="Caminho_2301" data-name="Caminho 2301" d="M122.152,305.412l.01-.028c.066-.012.112.034.177.023l.007-.02.147.035.29-.011,0-.016.154.006h.027l.011-.014.069.007c.272-.046.541-.14.835-.218l.18-.067.287-.034c-.021-.074.184-.145.129-.214.058-.008.147-.02.148-.039,0-.071.035-.15.179-.216.06-.014.154,0,.17-.022s-.081-.03-.055-.055c-.433.042-.854.163-1.285.189a4.992,4.992,0,0,1-1.386.057l-.023,0a1.55,1.55,0,0,0-.4-.07l-.166.018.055.053a.338.338,0,0,0-.129-.024c-.124.007-.07.055-.042.117.03.03-.028.053.017.086l-.09-.026c-.009.02.119.02.082.046l-.115-.026c.005.03.129.046.113.072-.02,0-.094-.066-.113-.034,0,.007.035.018.055.023-.12-.02-.2-.005-.1.062l-.131-.047.071.024-.065-.012.005.012.049.025-.048-.018.034.05a.984.984,0,0,0,.119.086Z" transform="translate(-99.358 -271.993)" fill="#4a4a4a"/>
      <path id="Caminho_2302" data-name="Caminho 2302" d="M122.152,310.078l.01-.03c.066-.009.112.035.177.024l.007-.018.147.035.29-.007,0-.018.154.007h.027l.011-.018.069.007c.272-.046.541-.14.835-.214l.18-.065.287-.037c-.021-.072.184-.145.129-.216.058-.008.147-.018.148-.041,0-.069.035-.147.179-.211.06-.018.154-.007.17-.023s-.081-.03-.055-.058c-.433.046-.854.159-1.285.188a4.916,4.916,0,0,1-1.386.062h-.023a1.6,1.6,0,0,0-.4-.067l-.166.012.055.055a.4.4,0,0,0-.129-.023c-.124,0-.07.058-.042.12.03.028-.028.052.017.085l-.09-.025c-.009.014.119.014.082.046l-.115-.028c.005.034.129.046.113.071-.02,0-.094-.064-.113-.032a.337.337,0,0,0,.055.023c-.12-.021-.2,0-.1.062l-.131-.044.071.03-.065-.023.005.012.049.025-.048-.014.034.042a.616.616,0,0,0,.119.092Z" transform="translate(-99.358 -274.482)" fill="#4a4a4a"/>
      <path id="Caminho_2303" data-name="Caminho 2303" d="M123.771,314.57l.01-.03c.064-.011.112.034.175.025l.007-.025.15.037.29-.006,0-.02.155.013.023,0,.007-.021.069.012c.278-.048.543-.141.836-.216l.18-.065.288-.037c-.021-.072.182-.145.133-.212.058-.007.14-.023.14-.041.007-.063.037-.148.186-.208.053-.023.148-.009.168-.028s-.083-.028-.053-.053c-.436.043-.856.159-1.291.186a5.1,5.1,0,0,1-1.388.06h-.018a1.87,1.87,0,0,0-.4-.074l-.172.025.062.05a.371.371,0,0,0-.131-.019c-.124,0-.074.053-.041.115.028.026-.03.048.018.085l-.092-.026c-.011.02.12.02.085.048l-.117-.028c0,.033.127.049.113.074-.021,0-.1-.068-.113-.032-.007.007.037.014.055.023-.122-.023-.2-.008-.1.058l-.127-.042.069.023-.069-.02.007.02.049.021-.046-.012.03.037c.046.041.092.088.122.092Z" transform="translate(-100.224 -276.879)" fill="#4a4a4a"/>
      <path id="Caminho_2304" data-name="Caminho 2304" d="M123.771,318.983l.01-.032c.064-.011.112.034.175.026l.007-.021.15.037.29-.01,0-.021.155.012.023-.005.007-.013.069,0a8.166,8.166,0,0,0,.836-.214l.18-.07.288-.03c-.021-.072.182-.147.133-.214.058-.01.14-.02.14-.042.007-.066.037-.147.186-.211.053-.02.148-.005.168-.021s-.083-.034-.053-.062c-.436.048-.856.164-1.291.189a4.683,4.683,0,0,1-1.388.063h-.018a1.867,1.867,0,0,0-.4-.073l-.172.021.062.051a.4.4,0,0,0-.131-.023c-.124.007-.074.058-.041.12.028.028-.03.046.018.084l-.092-.026c-.011.018.12.018.085.048l-.117-.03c0,.03.127.046.113.074-.021,0-.1-.066-.113-.034-.007.005.037.016.055.021-.122-.018-.2-.005-.1.062l-.127-.049.069.033-.069-.016.007.006.049.032-.046-.021.03.046a.561.561,0,0,0,.122.09Z" transform="translate(-100.224 -279.228)" fill="#4a4a4a"/>
      <path id="Caminho_2305" data-name="Caminho 2305" d="M123.771,324.047l.01-.027c.064-.014.112.032.175.025l.007-.023.15.037.29-.012,0-.01.155.005.023,0,.007-.016.069.006c.278-.044.543-.142.836-.21l.18-.067.288-.037c-.021-.074.182-.14.133-.216.058-.005.14-.014.14-.041.007-.065.037-.148.186-.21.053-.016.148,0,.168-.023s-.083-.032-.053-.057c-.436.044-.856.159-1.291.189a5.165,5.165,0,0,1-1.388.061h-.018a1.627,1.627,0,0,0-.4-.074l-.172.021.062.053a.308.308,0,0,0-.131-.024c-.124,0-.074.055-.041.117.028.03-.03.053.018.088l-.092-.025c-.011.018.12.018.085.043l-.117-.021c0,.03.127.039.113.066-.021,0-.1-.066-.113-.03-.007,0,.037.014.055.021-.122-.021-.2-.007-.1.062l-.127-.044.069.025-.069-.016.007.016.049.019-.046-.01.03.042a.781.781,0,0,0,.122.092Z" transform="translate(-100.224 -281.932)" fill="#4a4a4a"/>
      <path id="Caminho_2306" data-name="Caminho 2306" d="M161.187,310.474c-.009,0-.023.037-.03-.019-.021-.181.009-.327-.009-.508l-.023-.012.005-.437-.058-.808c-.006.007-.011.007-.018-.014-.011-.109-.007-.27-.014-.426l-.007-.071-.012-.025,0-.2c-.062-.787-.131-1.59-.124-2.453l-.007-.543a5.05,5.05,0,0,1,.108-.845c-.074.025,0-.6-.1-.486.028-.175.074-.429.07-.445-.048-.051-.074-.2.041-.661.046-.18.154-.437.163-.505.016-.1-.11.207-.1.106a11.634,11.634,0,0,0-.651,3.977c-.005.465.119,3.542.177,4.323l.005.069c.02.43.05.945.1,1.311l.07.495.028-.212c0,.168.007.34.019.409.041.359.066.154.113.011.019-.1.055.033.072-.122v.283c.021.011-.017-.353.016-.273l.014.344c.023-.035,0-.394.025-.379.009.067-.03.326.005.343a.979.979,0,0,0,0-.164c.021.355.058.55.085.225l0,.385h0l0-.212,0,.2.016-.032v-.157l0,.133.027-.115a3.355,3.355,0,0,0,.042-.4c.007-.7-.03-1.392-.063-2.085" transform="translate(-120.246 -270.642)" fill="#4a4a4a"/>
      <path id="Caminho_2307" data-name="Caminho 2307" d="M155.449,303.213c.016,0,.025-.035.032.017.021.167-.021.306,0,.474l.023.012-.023.4.03.764c.005-.007.014-.01.021.014.007.106,0,.252.007.4v.067l.013.03v.182c.056.739.094,1.493.143,2.315l.046.515c.007.242-.005.556-.007.8.069-.037.1.552.173.43a2.174,2.174,0,0,0,.013.415c.062.039.126.163.161.589.008.169-.016.426,0,.481.019.1.044-.211.06-.122.023-1.24.007-2.429,0-3.687-.014-.426-.079-3.3-.094-4.036l0-.069c-.014-.407-.05-.893-.1-1.23l-.08-.472-.019.207c-.013-.161-.021-.323-.036-.385-.048-.339-.07-.142-.113-.007-.014.1-.051-.028-.065.12l-.007-.267c-.023-.01.025.329-.011.255l-.025-.323c-.023.04.013.37-.018.355-.005-.057.021-.3-.014-.316,0-.007,0,.1,0,.156-.027-.331-.067-.506-.089-.205l-.009-.361h0v.012l-.02.037v.02l-.027.1c-.012.154-.034.294-.032.379Z" transform="translate(-117.551 -269.967)" fill="#4a4a4a"/>
      <path id="Caminho_2308" data-name="Caminho 2308" d="M155.356,300.493l.012-.034c.062-.008.112.036.174.022l.009-.018.152.034.285,0,.007-.018.15.006h.025l.009-.018.069.007a8.392,8.392,0,0,0,.835-.216l.18-.062.288-.039c-.021-.074.182-.139.127-.215.058,0,.143-.018.148-.038,0-.069.035-.146.181-.212.056-.016.15-.008.169-.021s-.079-.033-.053-.058c-.436.043-.854.158-1.289.188a5.026,5.026,0,0,1-1.384.062h-.025a1.5,1.5,0,0,0-.4-.07l-.17.018.058.051a.28.28,0,0,0-.127-.021c-.124,0-.07.055-.039.111.025.032-.028.055.018.09l-.1-.024c-.006.021.118.021.09.044l-.12-.023c0,.032.127.04.113.068-.021,0-.1-.064-.11-.032-.005,0,.032.014.048.023-.117-.023-.2-.009-.1.06l-.127-.046v0l.069.024-.069-.017.011.015.046.021-.044-.018.03.046c.046.034.09.082.12.088Z" transform="translate(-117.066 -269.369)" fill="#4a4a4a"/>
      <path id="Caminho_2309" data-name="Caminho 2309" d="M155.35,305.412l.018-.028c.06-.012.111.034.173.023l.007-.02.15.035.285-.011.011-.016.15.006h.025l.008-.014.068.007c.276-.046.548-.14.836-.218l.181-.067.288-.034c-.021-.074.183-.145.127-.214.058-.008.141-.02.148-.039,0-.071.034-.15.18-.216.057-.014.151,0,.17-.022s-.081-.03-.053-.055c-.437.042-.854.163-1.289.189a4.956,4.956,0,0,1-1.384.057l-.025,0a1.54,1.54,0,0,0-.4-.07l-.169.018.058.053a.33.33,0,0,0-.129-.024c-.124.007-.069.055-.039.117.026.03-.028.053.019.086l-.1-.026c-.007.02.119.02.089.046l-.119-.026c0,.03.127.046.113.072-.023,0-.1-.066-.11-.034-.007.007.032.018.048.023-.117-.02-.2-.005-.1.062l-.127-.047.069.024-.069-.012.01.012.048.025-.044-.018.028.05a.782.782,0,0,0,.122.086Z" transform="translate(-117.065 -271.993)" fill="#4a4a4a"/>
      <path id="Caminho_2310" data-name="Caminho 2310" d="M155.35,310.078l.018-.03c.06-.009.111.035.173.024l.007-.018.15.035.285-.007.011-.018.15.007h.025l.008-.018.068.007c.276-.046.548-.14.836-.214l.181-.065.288-.037c-.021-.072.183-.145.127-.216.058-.008.141-.018.148-.041,0-.069.034-.147.18-.211.057-.018.151-.007.17-.023s-.081-.03-.053-.058c-.437.046-.854.159-1.289.188a4.879,4.879,0,0,1-1.384.062h-.025a1.591,1.591,0,0,0-.4-.067l-.169.012.058.055a.393.393,0,0,0-.129-.023c-.124,0-.069.058-.039.12.026.028-.028.052.019.085l-.1-.025c-.007.014.119.014.089.046l-.119-.028c0,.034.127.046.113.071-.023,0-.1-.064-.11-.032-.007.007.032.018.051.023-.12-.021-.2,0-.1.062l-.127-.044.069.03-.069-.023.01.012.048.025-.044-.014.028.042a.535.535,0,0,0,.122.092Z" transform="translate(-117.065 -274.482)" fill="#4a4a4a"/>
      <path id="Caminho_2311" data-name="Caminho 2311" d="M156.962,314.57l.01-.03c.064-.011.117.034.179.025l.006-.025.15.037.29-.006.005-.02.147.013.032,0,.005-.021.071.012c.272-.048.543-.141.833-.216l.182-.065.285-.037c-.02-.072.182-.145.134-.212.055-.007.14-.023.14-.041.007-.063.041-.148.187-.208.057-.023.151-.009.165-.028.032-.021-.078-.028-.048-.053-.439.043-.857.159-1.291.186a5.1,5.1,0,0,1-1.386.06h-.023a1.736,1.736,0,0,0-.4-.074l-.168.025.055.05a.346.346,0,0,0-.126-.019c-.127,0-.074.053-.044.115.028.026-.025.048.021.085l-.092-.026c-.013.02.119.02.083.048l-.117-.028c0,.033.126.049.117.074-.025,0-.1-.068-.117-.032,0,.007.035.014.051.023-.122-.023-.2-.008-.1.058l-.129-.042.071.023-.069-.02.01.02.048.021-.046-.012.03.037c.046.041.09.088.12.092Z" transform="translate(-117.922 -276.879)" fill="#4a4a4a"/>
      <path id="Caminho_2312" data-name="Caminho 2312" d="M156.962,318.983l.01-.032c.064-.011.117.034.179.026l.006-.021.15.037.29-.01.005-.021.147.012.032-.005.005-.013.071,0a8.23,8.23,0,0,0,.833-.214l.182-.07.285-.03c-.02-.072.182-.147.134-.214.055-.01.14-.02.14-.042.007-.066.041-.147.187-.211.057-.02.151-.005.165-.021.032-.028-.078-.034-.048-.062-.439.048-.857.164-1.291.189a4.807,4.807,0,0,1-1.386.063h-.023a1.837,1.837,0,0,0-.4-.073l-.168.021.055.051a.371.371,0,0,0-.126-.023c-.127.007-.074.058-.044.12.028.028-.025.046.021.084l-.092-.026c-.013.018.119.018.083.048l-.119-.03c0,.03.127.046.119.074-.025,0-.1-.066-.117-.034,0,.005.035.016.051.021-.122-.018-.2-.005-.1.062l-.129-.049.071.033-.069-.016.009.006.049.032-.046-.021.03.046a.548.548,0,0,0,.12.09Z" transform="translate(-117.922 -279.228)" fill="#4a4a4a"/>
      <path id="Caminho_2313" data-name="Caminho 2313" d="M156.962,324.047l.01-.027c.064-.014.117.032.179.025l.006-.023.15.037.29-.012.005-.01.147.005.032,0,.005-.016.071.006c.272-.044.543-.142.833-.21l.182-.067.285-.037c-.02-.074.182-.14.134-.216.055-.005.14-.014.14-.041.007-.065.041-.148.187-.21.057-.016.151,0,.165-.023.032-.021-.078-.032-.048-.057-.439.044-.857.159-1.289.189a5.181,5.181,0,0,1-1.388.061h-.023a1.6,1.6,0,0,0-.4-.074l-.168.021.055.053a.246.246,0,0,0-.126-.024c-.127,0-.074.055-.044.117.028.03-.025.053.021.088l-.092-.025c-.013.018.119.018.083.043l-.117-.021c0,.03.126.039.117.066-.025,0-.1-.066-.117-.03,0,0,.035.014.053.021-.124-.021-.2-.007-.1.062l-.129-.044.071.025-.069-.016.01.016.048.019-.046-.01.03.042a.759.759,0,0,0,.12.092Z" transform="translate(-117.922 -281.932)" fill="#4a4a4a"/>
      <path id="Caminho_2314" data-name="Caminho 2314" d="M85.2,333.354c.009-.012-.287-.016.175-.037,1.459-.053,2.631-.05,4.086-.082l.1-.025a18.838,18.838,0,0,1,3.335.195c.011-.158-.034-.013-.152.447.718-.138-.265-.028-.32-.064l-1.649-.019-3.292-.064c.056.01.083.023-.138.023-.905-.015-2.175-.044-3.481-.052h-.58a.925.925,0,0,0-.211.02c-.6,0-1.126,0-1.612.015a4.1,4.1,0,0,0-1.346.173,7.482,7.482,0,0,0-.946.9c-.034.175-.271.035-.133.64a.634.634,0,0,0,.424.214,4.944,4.944,0,0,0,.637.073l1.229.017c1.634-.013,3.269-.079,4.924-.113.829-.016,1.66-.024,2.5-.01.656.093,2.115-.133,1.894.585-.842.426-3.193.179-4.765.225-1.491-.032-2.994-.041-4.433-.049-1.068,0-2.285.008-3.494.113-.531.074-1.349.027-1.687.587-.184.209-.561.467-.294.937l.807.134a36.584,36.584,0,0,0,3.747,0c1.384.008,3.467,0,3.577-.02a32.22,32.22,0,0,1,5.076-.041c1.441.023,3.644.083,4.157.083.8-.011-1.865-.083-1.066-.09-5.319-.269-10.68-.032-15.818-.458-.557.611.276-.474.474-.554.649-.078,1.3-.154,1.949-.189,1.3-.066,2.625-.048,3.945-.027,2.744-.123,5.088.541,8.259-.3-.06-.111.408-.819-.375-1.263a5.713,5.713,0,0,0-1.443-.191c-1.054-.048-2.348-.041-3.818-.013s-3.121.1-4.845.066a6.006,6.006,0,0,1-1.167-.108c.106.49.516-.407.85-.529a8.151,8.151,0,0,1,2.532-.207c1.855-.01,3.74.027,5.562.06.911.02,1.813.037,2.684.058l1.3.018H93c.644-.771.184-.4.423-.8.237-1.01-.9-.955-1.067-.978L91.2,332.6c-.745-.016-1.447-.014-2.1,0-1.3.018-2.378.053-3.173.076l-.576.023-1.33.03h-.672c.274.971.309-.065.486.044.515-.58,1.609-.393,2.491-.457,1.847.006,3.635.075,5.1.117.686,0,1.326.062,2.076,0,1.225-.254.369-2.254-.325-1.747.744-.265,1.186.99.682,1.513.327-.493.11-.877.119-1.239-.532-.453-.711-.136-1.048-.237-.587-.005-1.068-.005-1.334-.005-2.962,0-1.285.059-.147.124.817.035-.288.058.989.1-.918-.011-1.385-.021-2.308-.028-.108.018,2.847.021,2.2.051-.889-.018-1.887-.03-2.813-.026.322.019,3.2.051,3.059.076-.5,0-2.59-.08-2.776-.041-.032.007.895.018,1.354.025-2.843-.014-4.415.055-1.814.077-.907,0-2.178-.007-3.133,0h.007c.476,0,1.3.007,1.738,0l-1.628.009.287.014,1.236,0-1.082,0c.27.011.578.025.914.03,1.285.02,2.514.044,3.2.058l2.1.034c.131-.013,1.185.048.559-.02.044.41.064.722-.037.639-1.2.063-2.748-.082-4.1-.106-1.409-.039-2.8-.1-4.231-.046a2.289,2.289,0,0,0-2.072,1l-.087.12c.446,1.16.2.325.332.58l.27,0,.534-.009Z" transform="translate(-75.163 -285.896)" fill="#4a4a4a"/>
      <path id="Caminho_2315" data-name="Caminho 2315" d="M181.248,332.629c-.013.014.267.035-.168.027-1.362-.032-2.452-.117-3.826-.118l-.093.017a12.323,12.323,0,0,0-3.415.224c-.559.463-.1,1.026-.154,1.108l.013.107v.021c.592.81.2.226.339.407h.49l1.551-.029,3.071-.076c-.051,0-.074-.016.126-.021.849-.023,2.03-.039,3.247-.042l.541-.007a.77.77,0,0,0,.191-.014c.555,0,1.039.012,1.49.024.3,0,.9.056.957.029a7.651,7.651,0,0,1,.808.792c.5-.076-1.066.148-1.568.1-1.512.009-3.039-.039-4.587-.044-.779,0-1.559,0-2.348.027-.618.233-1.949-.428-2.106,1,1.31,1.137,3.138.341,4.728.518,1.4-.068,2.786-.119,4.129-.146.994,0,2.127,0,3.244.11.6.155,1.1-.08,1.452.523a.984.984,0,0,1,.347.64c-.053-.079-.444.058-.638.071.322.145-4.413.373-3.469.387-1.3.009-3.237-.008-3.342.021-.3.056-1.285.145-4.721.315-1.347.046-3.419.053-3.893.076-.746.03,1.752.009,1,.046,5.029-.264,9.852.014,14.863-.471.214-.217.191.366.6-.507a.958.958,0,0,0-.258-.663c-.4-.371-.175-.394-.883-.755-.621-.076-1.241-.154-1.864-.182-1.248-.069-2.481-.046-3.724-.021-2.305.106-5.368.046-7.06.2-.85-.84,2.253-.632,4.691-.649,1.37.014,2.9.083,4.548.044a2.521,2.521,0,0,0,1.4-.3c-.08-1.188-.564-.968-.847-1.438-1.041-.541-1.784-.216-2.7-.33-1.741,0-3.5.036-5.2.07-.851.019-1.692.033-2.507.053l-1.2.021h-.58c.557.367.069-.4.141-.4,1.857-.484,5.257-.125,6.48-.147l.536.014,1.249.037.652-.006c.458-1.043-.092-.637-.141-1.013-.854-.845-1.859-.507-2.688-.606-1.738.016-3.407.1-4.779.168-.612.021-1.289.1-1.849.06-.216,0-.154-.21-.154-.582-.035-.049.141-.625-.065-.235l.477-.014-.431-.006h-.108c.294-.357.072-.037.133-.083l-.025.219a1.432,1.432,0,0,0,.005.682,2.1,2.1,0,0,1,0-.895c-.148.1.483.02.656.039.545-.005.99-.02,1.239-.026,2.755-.068,1.194-.085.129-.128-.762-.008.27-.058-.926-.063.864-.011,1.292-.018,2.162-.029.1-.021-2.661.048-2.06.005.829,0,1.761-.034,2.622-.034-.3-.036-2.988.028-2.859-.007.471-.011,2.429.007,2.6-.028.032-.01-.833,0-1.268,0,2.661-.032,4.123-.032,1.7-.094.843.008,2.034.027,2.925.027h-.009c-.445-.005-1.207-.016-1.62-.016l1.514.006-.262-.016-1.151-.012,1.006.005c-.25-.011-.543-.027-.858-.041-1.192-.024-2.337-.067-2.992-.053l-1.966.018-.49.011c-.2.119.108-.281-.52.279l-.028.27c.032.281-.274.877.368,1.284a30.571,30.571,0,0,0,4.04-.025c1.3-.041,2.617-.1,3.9-.037a1.473,1.473,0,0,1,1.473.72c.714-.773-.343-.209-.442-.391Z" transform="translate(-126.867 -285.855)" fill="#4a4a4a"/>
      <path id="Caminho_2316" data-name="Caminho 2316" d="M136.679,338.806c-.007.009.092.027-.058.027-.472,0-.847-.057-1.323-.06l-.035.02-1.128-.044-2.123,0c.018.013.027.018-.042.018-.292,0-.7,0-1.123-.005h-.184a.174.174,0,0,0-.067.014c-.189,0-.357,0-.516-.007-2.063.042-4.162.1-6.436.162l-1.425.129c-.682.046-1.559.117-2.226.15.106.083-1.519.2-1.192.258-.445.016-1.117.034-1.154.049a3.709,3.709,0,0,1-1.651.093,7.96,7.96,0,0,1-1.36-.274c-.273-.044.6.195.33.149,3.552.718,6.832-.223,10.278-.078,1.174-.037,9.15-.093,11.174.023l.181,0c1.114.068,2.47.13,3.421.13.429.007.877-.028,1.32-.062-.209-.007-.4-.018-.562-.025.449-.009.9-.02,1.073-.034.28-.072.28.1.561-.166-.035-.112-.049-.122-.049-.079-.06.337-.288.061-.469.119-.269-.014.087-.06-.325-.074.267,0,.5-.021.675,0,.159-.051-.875.029-.644-.023.133-.046.946.089.561-.134.394.334-.727-.012-.642.094.048-.005,1.088.013.637-.012.07.063.124-.064-.18,0,.419-.005-.687-.831.07-.046a3.842,3.842,0,0,1-.693-.905v0a1.558,1.558,0,0,0,.4.569,1.437,1.437,0,0,1-.378-.524l.049.124a1.181,1.181,0,0,0,.292.391,1.167,1.167,0,0,1-.264-.323,1.106,1.106,0,0,0,.2.306,3.164,3.164,0,0,1,.343.44c.078-.1-.2.283.253-.23l-.193,0c-1.768.075-3.573-.083-5.371-.166" transform="translate(-95.799 -289.958)" fill="#4a4a4a"/>
      <path id="Caminho_2317" data-name="Caminho 2317" d="M122.445,332.575c0-.016-.09-.021.051-.035.438-.052.779-.028,1.213-.044l.025-.027,1.059.029,1.989-.034c-.016-.011-.025-.016.042-.021.272-.011.654,0,1.045.008l.173,0a.141.141,0,0,0,.065-.018l.479.011a28.874,28.874,0,0,1,5.978.393l1.33.127c.64.074,1.455.182,2.081.221-.09-.069,1.438-.039,1.137-.134a6.489,6.489,0,0,0,1.065-.028c.074-.1.452-.085,1.411-.438a.662.662,0,0,0,.476-.715c-.028-.168-.041.4-.06.221-.576.926-2.721.694-4.116.636-1.568-.115-3.138-.344-4.744-.586-1.1-.455-8.595-.266-10.515-.22l-.175.018c-1.043.076-2.3.175-3.161.159a7.43,7.43,0,0,1-1.2-.074l.493.12a6.06,6.06,0,0,1-.944-.191c-.771-.336-.38-.083-.077.1.228.1-.1.03.267.173a2.687,2.687,0,0,1-.656-.273c-.055.046.815.329.619.287a2.925,2.925,0,0,1-.8-.366c.055.129.907.443.864.423a3.85,3.85,0,0,1-.8-.342,1.66,1.66,0,0,0,.378.209c-.838-.353-1.085-1.075-.551-.23a1.306,1.306,0,0,1-.428-1.072l0,0a1.436,1.436,0,0,0,.115.661,1.224,1.224,0,0,1-.118-.613l-.007.105a.984.984,0,0,0,.09.483.877.877,0,0,1-.092-.421.863.863,0,0,0,.039.373,1.5,1.5,0,0,0,.812.864,12.727,12.727,0,0,0,5.149.262" transform="translate(-96.793 -286.033)" fill="#4a4a4a"/>
      <path id="Caminho_2318" data-name="Caminho 2318" d="M123.95,348.689c0-.014-.14-.019.079-.037.693-.044,1.247-.018,1.94-.058l.048-.023c.538-.012,1.095-.021,1.66-.033l3.128-.066c-.027-.008-.041-.016.065-.02.428-.01,1.024-.017,1.642.013l.274.007a.251.251,0,0,0,.1-.018c.281.011.532.02.755.03,1.526-.013,3.048.122,4.61.247a22.263,22.263,0,0,1,2.357.327l1.206.2c.1-.113.621.408.4-.233l-.629-.006c-.711,0-1.422,0-2.106-.014-1.013-.034-2.306.034-3.294.042.154.062-2.246.184-1.769.251-.654.025-1.644.06-1.69.088a9.151,9.151,0,0,1-2.407.251c-.684.025-1.738.021-1.977.039-.38.03.888.027.507.055,2.548-.018,5.045-.157,7.534-.237,1.245-.03,2.493-.1,3.741-.032l1.878.048.239.01.056.006c.2-1.328.021-.379.049-.675l-.115-.02-.476-.091-.953-.173c-1.717-.712-13.521-.875-16.525-.539l-.274.016c-1.642.076-3.641.184-5.028.267l-1.931.141c.3.008.578,0,.815.008-.658.031-1.31.039-1.562.053-1.4.064-.608.085-.063.127.386.014-.136.062.47.071-.441.008-.656.01-1.1.019-.05.026,1.354-.037,1.05,0-.421,0-.9.022-1.333.028.154.025,1.517-.02,1.45.014-.23.009-1.229-.018-1.318.023-.014.006.425,0,.644-.005-1.349.039-2.095.085-.859.1-.429,0-1.038,0-1.49.018h.005c.228,0,.617,0,.822,0l-.769.007.136.014.583,0-.509.011c.124.007.272.018.433.021.61.018,1.192.035,1.524.028,2.663-.042,5.324-.185,7.976-.3" transform="translate(-95.356 -295.101)" fill="#4a4a4a"/>
      <path id="Caminho_2319" data-name="Caminho 2319" d="M126.1,354.526c.005-.012-.152-.031.09-.025.773.025,1.39.091,2.164.122l.056-.023c.6.046,1.22.089,1.853.14,1.175.049,2.336.113,3.5.143-.029-.007-.046-.02.072-.02.488.007,1.156.026,1.851.044H136a.262.262,0,0,0,.11-.018c.312,0,.592.007.849.007,1.7-.018,3.414-.044,5.172-.07.357-.184,1.057.4,1.146-.425l-1.347.021-2.757.036c-.789.016-1.583.042-2.342.05-1.134.005-2.577-.007-3.675-.007.166.071-2.516.112-1.98.188-.736,0-1.841-.005-1.894.018a12.651,12.651,0,0,1-2.686.18c-.764,0-1.932-.023-2.2-.005-.421.018.992.042.564.063,5.672.023,11.138,0,16.844,0,.246,0,.66-.006,1.213-.014.057-.281.457.642.266-.64l-.488,0c-.335.005-.7.005-1.089.005-1.554.006-3.483.01-5.454.01-3.922.011-8.036-.353-9.723-.4l-.311-.008c-1.832-.1-4.076-.121-5.638-.032-.716.014-1.44.119-2.16.2.334-.016.649-.032.916-.042-.735.063-1.469.127-1.748.168-1.559.256-.667.143-.063.127.433-.018-.15.07.53.032a9.075,9.075,0,0,0-1.215.147,8.421,8.421,0,0,1,1.162-.12,8.381,8.381,0,0,0-1.474.2,13.009,13.009,0,0,1,1.6-.166,7.773,7.773,0,0,0-1.447.177c-.018.016.459-.087.7-.108-1.486.259-2.288.458-.936.246-.464.087-1.133.189-1.627.287h.008c.245-.048.672-.117.9-.157l-.845.15.149-.007.642-.113-.561.1.483-.051c.665-.1,1.307-.186,1.664-.251a58.168,58.168,0,0,1,8.848-.163" transform="translate(-95.924 -298.273)" fill="#4a4a4a"/>
      <path id="Caminho_2320" data-name="Caminho 2320" d="M132.114,342.965c-.006.012.147.017-.085.035-.737.046-1.335.027-2.071.076l-.055.025c-.575.014-1.165.042-1.77.062l-3.331.183c.028.007.042.014-.067.021-.46.034-1.1.03-1.758.046l-.29.008a.265.265,0,0,0-.106.023c-.292,0-.562.005-.807.005-1.625.023-3.258.042-4.935.066l-1.266.024c-.189.807.681.211.974.384l2.633-.032c.753-.02,1.512-.035,2.24-.049,1.079-.007,2.455.006,3.506.011-.162-.078,2.407-.117,1.892-.191.7,0,1.75,0,1.805-.018a11.531,11.531,0,0,1,2.562-.179c.729-.01,1.851.018,2.106,0,.4-.02-.946-.046-.538-.064-5.418-.024-10.63,0-16.081,0-.233,0-.631.006-1.158.007.143,1.289,1.075.355,1.733.64,1.482-.016,3.321,0,5.207-.028,3.778-.071,7.7-.376,9.3-.414l.292-.011c1.752-.07,3.874-.092,5.347-.055.679-.023,1.365.06,2.048.086-.315-.044-.609-.074-.859-.11.693.06,1.39.126,1.658.136,1.474.195.649.018.087-.115-.412-.064.15-.05-.492-.131a7.86,7.86,0,0,1,1.158.154c.058-.044-1.429-.179-1.1-.169a12.929,12.929,0,0,1,1.411.2,14.926,14.926,0,0,0-1.533-.251c.253-.01,1.3.188,1.393.188.018,0-.442-.085-.674-.126,1.427.245,2.218.359.92.078.456.085,1.091.217,1.57.3v-.007c-.239-.044-.653-.128-.875-.168l.817.152-.14-.042-.615-.119.539.1c-.134-.034-.285-.074-.455-.115-.643-.14-1.255-.29-1.607-.35a52.1,52.1,0,0,0-8.531-.274" transform="translate(-96.298 -292.46)" fill="#4a4a4a"/>
      <path id="Caminho_2321" data-name="Caminho 2321" d="M132.112,335.8c0,.009.145.018-.085.023-.741.03-1.333.014-2.071.041l-.053.016c-.568.008-1.162.019-1.772.03l-3.332.106c.028,0,.044.009-.069.011-.458.021-1.1.017-1.758.028l-.288.005a.267.267,0,0,0-.1.012c-.3,0-.566.007-.812.007-1.625.01-3.255.028-4.931.046l-1.266.011c-.133.6.7.161,1.006.292l2.626-.03c.757-.01,1.513-.026,2.239-.032,1.079-.009,2.452,0,3.5.006-.159-.058,2.4-.087,1.887-.141.7.005,1.756.005,1.809-.012a15.182,15.182,0,0,1,2.564-.133c.73-.005,1.844.013,2.1,0,.4-.014-.944-.028-.54-.043-5.411-.02-10.621,0-16.067,0-.233,0-.63,0-1.158.011.089.944,1.061.258,1.7.471,1.485-.013,3.32,0,5.209-.02,3.761-.044,7.685-.209,9.292-.223l.29-.008c1.756-.037,3.878-.05,5.361-.037.677-.018,1.365.023,2.051.037l-.866-.071c.7.034,1.4.071,1.669.073,1.483.1.646,0,.074-.087-.412-.037.147-.031-.5-.085.469.021.7.028,1.165.085.056-.028-1.432-.1-1.109-.1.449.02.951.053,1.416.106-.161-.056-1.612-.136-1.54-.138.251-.014,1.308.1,1.4.1.016,0-.454-.054-.686-.073,1.438.133,2.228.19.923.025.452.048,1.095.126,1.575.167h0c-.238-.021-.656-.073-.875-.094l.821.081-.145-.023-.619-.067.547.055c-.14-.025-.292-.046-.465-.071-.646-.08-1.259-.174-1.616-.2-2.829-.2-5.676-.209-8.5-.154" transform="translate(-96.312 -288.653)" fill="#4a4a4a"/>
      <path id="Caminho_2322" data-name="Caminho 2322" d="M140.7,245.279c-.009,0-.025.016-.034-.009-.007-.079.028-.14.014-.221l-.019,0,.026-.191-.035-.352-.019-.005-.009-.186-.005-.03-.016-.011-.006-.085c-.09-.094-.129-1.206-.433-.587l.221.011c.006.081.463.011.276-.262-.042.043-.243-.1-.25,0-.039.006-.143-.175-.143-.175-.06-.009-.138-.044-.214-.221-.023-.071-.023-.19-.039-.211s-.021.1-.049.069l.079.4c.266.541.246.294.3.421.281-.177.217-.209.184-.446a.449.449,0,0,1-.113-.027l-.168-.046-.039-.011c.308.838-.126.345-.092.4.039-.169-.29.3-.184.127a5.773,5.773,0,0,1,.184,1.605v.028a2.722,2.722,0,0,0,.016.533l.034.208.044-.084a.5.5,0,0,0-.009.162c.014.155.056.078.112.025.024-.037.049.023.076-.042l-.014.122c.018.007.007-.15.032-.109l-.009.145c.027-.014.027-.164.053-.157,0,.025-.051.134-.021.147.007,0,.016-.044.018-.067-.009.152.013.24.065.1l-.03.17.021-.1-.015.09.017-.013.016-.067-.009.059.039-.044a.942.942,0,0,0,.069-.167,5.444,5.444,0,0,0,.081-.907" transform="translate(-109.309 -239.041)" fill="#4a4a4a"/>
      <path id="Caminho_2323" data-name="Caminho 2323" d="M132.395,276.345c.178,1.186,0,2.845.364,3.95.089.161-.186.476-.092.631.639.716,3.932.4,4.846.477,1,.079,2.925.555,3.839.157,1.1-.393.822-1.266.822-2.371a7.18,7.18,0,0,0,.274-2.366c-.365-1.022-.912-.634-2.373-.714-1.832-.076-6.038-1.025-7.775,0Z" transform="translate(-105.249 -256.586)" fill="#4a4a4a"/>
      <path id="Caminho_2324" data-name="Caminho 2324" d="M104.871,317.7h-4.312c-.3,0-.7.224-1.006.224-.4-.109-.7-.553-.9-.553a12.418,12.418,0,0,0-3.513-.327c-1.4,0-1.5.217-2-1.1-.6-1.87.4-3.082-1.809-3.412a15.692,15.692,0,0,0-3.913.109c-1.805.221-1.908,1.538-3.31,2.094-1.405.656-2.962,0-4.47.331-.9.219-2.261.443-2.06,1.649,3.913-.11,8.534-1.1,12.449-.548,1.4.218,1.807.438,2.3,2.087.3.882-.3,1.1.405,1.653.4.219,1.2-.441,1.7-.221,1.2.66.3,4.622.2,6.167-.051,1.427-1.952,1.1-2.007,2.64a37.547,37.547,0,0,1,2.661,6.27c.6-.988.247-3.3.35-4.624a25.663,25.663,0,0,0-.1-2.859c0-.775.2-1.1.2-1.653a16.5,16.5,0,0,0-.2-2.308c-.1-2.2.6-1.432,2.311-.88,2.91.66,6.422.219,9.328.219H113.8c1.2,0,2.3-.115,3.51,0,.8.108,3.411,0,4.114.441,1.306.882.5,4.182.8,5.72.1.554.5.99.5,1.431s.7,2.641.8,4.293c.1-1.874-.562-4.367,1.049-5.115,1.7-.785.281-2.688-.821-4.341-1.439-2.148-2.136-5.067,1.176-5.509,1.5-.217,2.709.661,3.013-1.1.2-.992-.5-2.2-.2-3.3.4-1.537,1.6-1.429,3.107-1.537.6,0,3.213.218,2.408-.88-.4-.442-5.721-.771-6.425-.115-1.2,1.1,0,3.744-1.7,4.622-1.7.99-4.417-.762-6.022.11-1.1.553-3.814.223-5.212.111-.3,2.092-3.719,2.092-5.524,2.2-1.3.109-3.814.552-3.614-1.54Z" transform="translate(-76.056 -276.118)" fill="#4a4a4a"/>
      <path id="Caminho_2325" data-name="Caminho 2325" d="M183.457,312.334l.009.147,1.33-.083-.009-.148Z" transform="translate(-132.528 -276.11)" fill="#4a4a4a"/>
      <path id="Caminho_2326" data-name="Caminho 2326" d="M194.766,312.93c1.552-.166.555,1.653,1.11,2.316.663.824,1.109.488,2.1.656,2.111.168,3.22-.656,3.549,2.806.337,3.8.368,9.571-.093,9.571-.333-1.816-.679-6.272-.793-8.252-.109-2.8,0-2.311-1.885-2.969-1.218-.331-1.994-1.157-3.216-.661a10.176,10.176,0,0,0-.33-3.138Z" transform="translate(-138.559 -276.467)" fill="#4a4a4a"/>
      <path id="Caminho_2327" data-name="Caminho 2327" d="M81,319.54c-1.218-.493-2,.33-3.216.658-1.885.661-2.682.169-2.79,2.97-.113,1.986.108,3.8.108,5.616,0,6.263-1.249,1.107-.546-6.931.336-3.469,4-3.656,4-2.806.776,0,2.44-.333,2.44.493" transform="translate(-74.343 -279.508)" fill="#4a4a4a"/>
      <path id="Caminho_2328" data-name="Caminho 2328" d="M118.158,295.459c0,.393.148.393.195.737.327.067.15.329.576.336.833.016,2.327-.278,3.031-.3,1.254-.041,2.507-.079,3.768-.124,1.682-.046,3.329-.179,5.014-.179,1.374,0,2.743.283,4.118.323,1.332.071,2.705,0,4,0,.628,0,2.705.112,2.866-.275.034-.071-.681-.725-.681-.8,0-.334-.695-.2-.972-.2-.9.018-1.8.083-2.7.083-2.353.018-4.648-.034-7-.053-3.881-.044-7.656.3-11.537.324Z" transform="translate(-97.707 -266.889)" fill="#4a4a4a"/>
      <path id="Caminho_2329" data-name="Caminho 2329" d="M132.012,291.53c0,.393.078.783.094,1.13.166.067.081.323.281.332.408.011,1.146-.28,1.487-.288.613-.044,1.229-.091,1.846-.134.822-.037,1.636-.175,2.457-.175.674,0,1.344.286,2.016.332.658.062,1.328,0,1.961,0,.308,0,1.324.108,1.405-.286.02-.065-.334-.722-.334-.792,0-.338-.343-.205-.475-.205-.442.018-.883.087-1.326.087-1.153.018-2.274-.036-3.425-.058-1.9-.039-3.756.306-5.658.325Z" transform="translate(-105.095 -265.001)" fill="#4a4a4a"/>
      <path id="Caminho_2330" data-name="Caminho 2330" d="M119.641,291.979c.346,0,.693.018,1,.02.056.042.284.019.293.077.014.1-.247.281-.261.37-.032.152.294.306.254.463-.041.2.8.627.8.836,0,.164-.372.113-.334.281.06.162.214.332.214.493a3.05,3.05,0,0,1-1.161.348c-.055.005-.43-.083-.5-.083-.294,0-.155-.12-.155-.155.019-.11-.152-.179-.152-.294a6.511,6.511,0,0,0-.048-.858,5.515,5.515,0,0,1,.069-.944Z" transform="translate(-98.468 -265.301)" fill="#4a4a4a"/>
      <path id="Caminho_2331" data-name="Caminho 2331" d="M165.414,291.45c-.345,0-.69.018-1,.021-.06.043-.283.021-.294.076-.016.11.24.31.254.407.039.168-.29.332-.253.5.042.223-.8.682-.8.907,0,.186.37.126.334.313-.056.178-.212.362-.212.532a2.937,2.937,0,0,0,1.158.38c.06.008.434-.092.5-.092.3,0,.159-.134.159-.168-.018-.12.15-.2.15-.322a8.089,8.089,0,0,1,.051-.927,5.887,5.887,0,0,0-.072-1.025Z" transform="translate(-121.794 -265.019)" fill="#4a4a4a"/>
    </g>
  </g>
</svg>
