<svg xmlns="http://www.w3.org/2000/svg" viewBox="0 0 156.75 46.54"><defs><style>.cls-1,.cls-3,.cls-4{isolation:isolate;}.cls-2{fill:#3b393e;}.cls-3,.cls-4,.cls-5{fill:#0048b9;}.cls-3{opacity:0.22;}.cls-4{opacity:0.51;}</style></defs><title>Marca Aplicação</title><g id="Camada_2" data-name="Camada 2"><g id="Camada_1-2" data-name="Camada 1"><g id="Marca_Aplicação" data-name="Marca Aplicação"><g id="Grupo_2643" data-name="Grupo 2643"><g id="Marie_Winter" data-name="Marie Winter" class="cls-1"><g class="cls-1"><path class="cls-2" d="M47.36,30.87V13.69h5.57a20.2,20.2,0,0,1,4.12.26,4.44,4.44,0,0,1,2.47,1.68,5.29,5.29,0,0,1,1,3.34A5.6,5.6,0,0,1,60,21.63a4.79,4.79,0,0,1-1.46,1.7,5,5,0,0,1-1.8.81,19.25,19.25,0,0,1-3.6.25H50.83v6.48ZM50.83,16.6v4.87h1.9a9,9,0,0,0,2.74-.27,2.28,2.28,0,0,0,1.08-.84A2.35,2.35,0,0,0,57,19a2.24,2.24,0,0,0-.56-1.55A2.4,2.4,0,0,0,55,16.71a16.77,16.77,0,0,0-2.5-.11Z"/><path class="cls-2" d="M66.5,30.87H63.2V18.42h3.06v1.77a5.64,5.64,0,0,1,1.41-1.65,2.68,2.68,0,0,1,1.43-.4,4.24,4.24,0,0,1,2.17.62l-1,2.87a3,3,0,0,0-1.55-.53,1.79,1.79,0,0,0-1.17.38,2.63,2.63,0,0,0-.76,1.37A20.06,20.06,0,0,0,66.5,27Z"/><path class="cls-2" d="M71.92,24.47a6.77,6.77,0,0,1,.81-3.18A5.56,5.56,0,0,1,75,19a6.79,6.79,0,0,1,3.31-.81A6.19,6.19,0,0,1,83,20a6.33,6.33,0,0,1,1.81,4.63,6.38,6.38,0,0,1-1.83,4.68,6.14,6.14,0,0,1-4.58,1.86,7.31,7.31,0,0,1-3.27-.77,5.34,5.34,0,0,1-2.36-2.27A7.56,7.56,0,0,1,71.92,24.47Zm3.38.18a4.08,4.08,0,0,0,.88,2.83,2.76,2.76,0,0,0,2.16,1,2.79,2.79,0,0,0,2.17-1,4.18,4.18,0,0,0,.87-2.86,4.11,4.11,0,0,0-.87-2.81,2.79,2.79,0,0,0-2.17-1,2.75,2.75,0,0,0-2.16,1A4.11,4.11,0,0,0,75.3,24.65Z"/><path class="cls-2" d="M93.05,18.42v2.63H90.8v5a11.09,11.09,0,0,0,.07,1.78.72.72,0,0,0,.29.42.92.92,0,0,0,.55.16A4.32,4.32,0,0,0,93,28.1l.28,2.56a6.52,6.52,0,0,1-2.6.49,4.16,4.16,0,0,1-1.61-.3,2.48,2.48,0,0,1-1-.77,3.2,3.2,0,0,1-.46-1.28,16.47,16.47,0,0,1-.1-2.33V21.05H86V18.42H87.5V16L90.8,14v4.39Z"/><path class="cls-2" d="M94.57,24.47a6.77,6.77,0,0,1,.81-3.18A5.62,5.62,0,0,1,97.67,19a6.82,6.82,0,0,1,3.31-.81A6.18,6.18,0,0,1,105.61,20a6.29,6.29,0,0,1,1.81,4.63,6.42,6.42,0,0,1-1.82,4.68A6.17,6.17,0,0,1,101,31.15a7.34,7.34,0,0,1-3.27-.77,5.34,5.34,0,0,1-2.36-2.27A7.56,7.56,0,0,1,94.57,24.47Zm3.38.18a4.08,4.08,0,0,0,.88,2.83,2.86,2.86,0,0,0,4.33,0,4.18,4.18,0,0,0,.87-2.86,4.11,4.11,0,0,0-.87-2.81,2.88,2.88,0,0,0-4.33,0A4.11,4.11,0,0,0,98,24.65Z"/><path class="cls-2" d="M120.85,22.1l-3.25.59a2.4,2.4,0,0,0-.74-1.47,2.3,2.3,0,0,0-1.51-.49,2.48,2.48,0,0,0-2,.85,4.36,4.36,0,0,0-.73,2.84,5,5,0,0,0,.74,3.13,2.45,2.45,0,0,0,2,.92,2.18,2.18,0,0,0,1.53-.54,3.2,3.2,0,0,0,.85-1.83l3.23.55A5.67,5.67,0,0,1,119.08,30a6,6,0,0,1-3.83,1.14,5.7,5.7,0,0,1-4.36-1.72,6.69,6.69,0,0,1-1.62-4.77,6.66,6.66,0,0,1,1.63-4.8,5.75,5.75,0,0,1,4.4-1.72,6,6,0,0,1,3.62,1A5.45,5.45,0,0,1,120.85,22.1Z"/><path class="cls-2" d="M122.58,24.47a6.77,6.77,0,0,1,.81-3.18A5.56,5.56,0,0,1,125.68,19a6.79,6.79,0,0,1,3.31-.81A6.18,6.18,0,0,1,133.62,20a6.33,6.33,0,0,1,1.81,4.63,6.38,6.38,0,0,1-1.83,4.68A6.14,6.14,0,0,1,129,31.15a7.34,7.34,0,0,1-3.27-.77,5.34,5.34,0,0,1-2.36-2.27A7.56,7.56,0,0,1,122.58,24.47Zm3.38.18a4.08,4.08,0,0,0,.88,2.83,2.76,2.76,0,0,0,2.16,1,2.79,2.79,0,0,0,2.17-1,4.18,4.18,0,0,0,.87-2.86,4.11,4.11,0,0,0-.87-2.81,2.79,2.79,0,0,0-2.17-1,2.75,2.75,0,0,0-2.16,1A4.11,4.11,0,0,0,126,24.65Z"/><path class="cls-2" d="M138,30.87V13.69h3.3V30.87Z"/><path class="cls-2" d="M143.91,24.47a6.77,6.77,0,0,1,.81-3.18A5.56,5.56,0,0,1,147,19a6.79,6.79,0,0,1,3.31-.81A6.19,6.19,0,0,1,155,20a6.33,6.33,0,0,1,1.8,4.63,6.38,6.38,0,0,1-1.82,4.68,6.14,6.14,0,0,1-4.59,1.86,7.3,7.3,0,0,1-3.26-.77,5.29,5.29,0,0,1-2.36-2.27A7.56,7.56,0,0,1,143.91,24.47Zm3.38.18a4.13,4.13,0,0,0,.87,2.83,2.79,2.79,0,0,0,2.17,1,2.76,2.76,0,0,0,2.16-1,4.13,4.13,0,0,0,.88-2.86,4.06,4.06,0,0,0-.88-2.81,2.75,2.75,0,0,0-2.16-1,2.79,2.79,0,0,0-2.17,1A4.16,4.16,0,0,0,147.29,24.65Z"/></g></g><path id="Caminho_3529" data-name="Caminho 3529" class="cls-3" d="M33.41,5.54V41L19.06,33.5V14.2Z"/><path id="Caminho_3530" data-name="Caminho 3530" class="cls-4" d="M26,3.14V43.4L9.67,34.89V13Z"/><path id="Caminho_3528" data-name="Caminho 3528" class="cls-5" d="M18.84,0V46.54L0,36.7V11.36Z"/></g></g></g></g></svg>